<?xml version="1.0" encoding="UTF-8" standalone="no"?>
<!DOCTYPE svg PUBLIC "-//W3C//DTD SVG 1.1//EN"
 "http://www.w3.org/Graphics/SVG/1.1/DTD/svg11.dtd">
<!-- Generated by graphviz version 2.40.1 (20161225.0304)
 -->
<!-- Title: %3 Pages: 1 -->
<svg width="260pt" height="118pt"
 viewBox="0.00 0.00 260.39 118.40" xmlns="http://www.w3.org/2000/svg" xmlns:xlink="http://www.w3.org/1999/xlink">
<g id="graph0" class="graph" transform="scale(1 1) rotate(0) translate(4 114.3968)">
<title>%3</title>
<polygon fill="#ffffff" stroke="transparent" points="-4,4 -4,-114.3968 256.3899,-114.3968 256.3899,4 -4,4"/>
<g id="node1" class="node">
<title></title>
</g>
<!-- q0 -->
<g id="node2" class="node">
<title>q0</title>
<ellipse fill="none" stroke="#ff0000" cx="63.4983" cy="-22.1984" rx="19.4965" ry="19.4965"/>
<text text-anchor="middle" x="63.4983" y="-18.4984" font-family="Times,serif" font-size="14.00" fill="#000000">q0</text>
</g>
<!-- &#45;&gt;q0 -->
<g id="edge1" class="edge">
<title>&#45;&gt;q0</title>
<path fill="none" stroke="#000000" d="M7.0735,-22.1984C13.2984,-22.1984 26.6285,-22.1984 38.7696,-22.1984"/>
<polygon fill="#000000" stroke="#000000" points="38.876,-23.9485 43.8759,-22.1984 38.8759,-20.4485 38.876,-23.9485"/>
</g>
<!-- q0&#45;&gt;q0 -->
<g id="edge3" class="edge">
<title>q0&#45;&gt;q0</title>
<path fill="none" stroke="#000000" d="M57.0268,-40.7202C55.927,-50.6501 58.0842,-59.6967 63.4983,-59.6967 66.8821,-59.6967 68.9936,-56.1629 69.833,-51.0882"/>
<polygon fill="#000000" stroke="#000000" points="73.3374,-50.7655 69.9698,-40.7202 66.338,-50.6731 73.3374,-50.7655"/>
<text text-anchor="middle" x="63.4983" y="-63.4967" font-family="Times,serif" font-size="14.00" fill="#000000">1</text>
</g>
<!-- q1 -->
<g id="node3" class="node">
<title>q1</title>
<ellipse fill="none" stroke="#000000" cx="145.4948" cy="-22.1984" rx="19.4965" ry="19.4965"/>
<text text-anchor="middle" x="145.4948" y="-18.4984" font-family="Times,serif" font-size="14.00" fill="#000000">q1</text>
</g>
<!-- q0&#45;&gt;q1 -->
<g id="edge2" class="edge">
<title>q0&#45;&gt;q1</title>
<path fill="none" stroke="#000000" d="M83.3473,-22.1984C93.0163,-22.1984 104.8463,-22.1984 115.5804,-22.1984"/>
<polygon fill="#000000" stroke="#000000" points="115.8286,-25.6985 125.8285,-22.1984 115.8285,-18.6985 115.8286,-25.6985"/>
<text text-anchor="middle" x="104.4965" y="-25.9984" font-family="Times,serif" font-size="14.00" fill="#000000">0</text>
</g>
<!-- q1&#45;&gt;q1 -->
<g id="edge4" class="edge">
<title>q1&#45;&gt;q1</title>
<path fill="none" stroke="#000000" d="M138.3043,-40.7202C137.0823,-50.6501 139.4792,-59.6967 145.4948,-59.6967 149.2546,-59.6967 151.6008,-56.1629 152.5334,-51.0882"/>
<polygon fill="#000000" stroke="#000000" points="156.0383,-50.7704 152.6854,-40.7202 149.039,-50.6678 156.0383,-50.7704"/>
<text text-anchor="middle" x="145.4948" y="-63.4967" font-family="Times,serif" font-size="14.00" fill="#000000">0</text>
</g>
<!-- qf -->
<g id="node4" class="node">
<title>qf</title>
<ellipse fill="none" stroke="#000000" cx="230.1915" cy="-22.1984" rx="18.3625" ry="18.3625"/>
<ellipse fill="none" stroke="#000000" cx="230.1915" cy="-22.1984" rx="22.3986" ry="22.3986"/>
<text text-anchor="middle" x="230.1915" y="-18.4984" font-family="Times,serif" font-size="14.00" fill="#000000">qf</text>
</g>
<!-- q1&#45;&gt;qf -->
<g id="edge5" class="edge">
<title>q1&#45;&gt;qf</title>
<path fill="none" stroke="#000000" d="M165.1388,-22.1984C174.8413,-22.1984 186.8014,-22.1984 197.809,-22.1984"/>
<polygon fill="#000000" stroke="#000000" points="197.9661,-25.6985 207.9661,-22.1984 197.9661,-18.6985 197.9661,-25.6985"/>
<text text-anchor="middle" x="186.4931" y="-25.9984" font-family="Times,serif" font-size="14.00" fill="#000000">1</text>
</g>
<!-- qf&#45;&gt;qf -->
<g id="edge6" class="edge">
<title>qf&#45;&gt;qf</title>
<path fill="none" stroke="#000000" d="M226.3155,-44.1132C225.9463,-53.9174 227.2383,-62.3968 230.1915,-62.3968 232.0372,-62.3968 233.234,-59.0845 233.7819,-54.2067"/>
<polygon fill="#000000" stroke="#000000" points="237.2832,-54.2082 234.0674,-44.1132 230.286,-54.0102 237.2832,-54.2082"/>
<text text-anchor="middle" x="230.1915" y="-66.1968" font-family="Times,serif" font-size="14.00" fill="#000000">0</text>
</g>
<!-- qf&#45;&gt;qf -->
<g id="edge7" class="edge">
<title>qf&#45;&gt;qf</title>
<path fill="none" stroke="#000000" d="M223.5181,-43.6874C220.6662,-61.6391 222.8907,-80.3968 230.1915,-80.3968 236.1233,-80.3968 238.7041,-68.0138 237.9336,-53.7412"/>
<polygon fill="#000000" stroke="#000000" points="241.4024,-53.2613 236.8648,-43.6874 234.4416,-54.0013 241.4024,-53.2613"/>
<text text-anchor="middle" x="230.1915" y="-84.1968" font-family="Times,serif" font-size="14.00" fill="#000000">1</text>
</g>
</g>
</svg>
