<?xml version="1.0" encoding="UTF-8" standalone="no"?>
<!DOCTYPE svg PUBLIC "-//W3C//DTD SVG 1.1//EN"
 "http://www.w3.org/Graphics/SVG/1.1/DTD/svg11.dtd">
<!-- Generated by graphviz version 2.40.1 (20161225.0304)
 -->
<!-- Title: %3 Pages: 1 -->
<svg width="342pt" height="116pt"
 viewBox="0.00 0.00 342.39 115.70" xmlns="http://www.w3.org/2000/svg" xmlns:xlink="http://www.w3.org/1999/xlink">
<g id="graph0" class="graph" transform="scale(1 1) rotate(0) translate(4 111.6967)">
<title>%3</title>
<polygon fill="#ffffff" stroke="transparent" points="-4,4 -4,-111.6967 338.3864,-111.6967 338.3864,4 -4,4"/>
<g id="node1" class="node">
<title></title>
</g>
<!-- q0 -->
<g id="node2" class="node">
<title>q0</title>
<ellipse fill="none" stroke="#ff0000" cx="63.4983" cy="-22.1984" rx="19.4965" ry="19.4965"/>
<text text-anchor="middle" x="63.4983" y="-18.4984" font-family="Times,serif" font-size="14.00" fill="#000000">q0</text>
</g>
<!-- &#45;&gt;q0 -->
<g id="edge1" class="edge">
<title>&#45;&gt;q0</title>
<path fill="none" stroke="#000000" d="M7.0735,-22.1984C13.2984,-22.1984 26.6285,-22.1984 38.7696,-22.1984"/>
<polygon fill="#000000" stroke="#000000" points="38.876,-23.9485 43.8759,-22.1984 38.8759,-20.4485 38.876,-23.9485"/>
</g>
<!-- q0&#45;&gt;q0 -->
<g id="edge2" class="edge">
<title>q0&#45;&gt;q0</title>
<path fill="none" stroke="#000000" d="M60.223,-41.492C59.7698,-51.114 60.8616,-59.6967 63.4983,-59.6967 65.105,-59.6967 66.1381,-56.5096 66.5974,-51.8424"/>
<polygon fill="#000000" stroke="#000000" points="70.1028,-51.5501 66.7736,-41.492 63.1038,-51.431 70.1028,-51.5501"/>
<text text-anchor="middle" x="63.4983" y="-63.4967" font-family="Times,serif" font-size="14.00" fill="#000000">0</text>
</g>
<!-- q0&#45;&gt;q0 -->
<g id="edge3" class="edge">
<title>q0&#45;&gt;q0</title>
<path fill="none" stroke="#000000" d="M58.0403,-40.9626C55.2102,-58.583 57.0295,-77.6967 63.4983,-77.6967 68.7036,-77.6967 70.8983,-65.3201 70.0824,-51.3044"/>
<polygon fill="#000000" stroke="#000000" points="73.5183,-50.5249 68.9563,-40.9626 66.5595,-51.2827 73.5183,-50.5249"/>
<text text-anchor="middle" x="63.4983" y="-81.4967" font-family="Times,serif" font-size="14.00" fill="#000000">1</text>
</g>
<!-- q1 -->
<g id="node3" class="node">
<title>q1</title>
<ellipse fill="none" stroke="#000000" cx="145.4948" cy="-22.1984" rx="19.4965" ry="19.4965"/>
<text text-anchor="middle" x="145.4948" y="-18.4984" font-family="Times,serif" font-size="14.00" fill="#000000">q1</text>
</g>
<!-- q0&#45;&gt;q1 -->
<g id="edge4" class="edge">
<title>q0&#45;&gt;q1</title>
<path fill="none" stroke="#000000" d="M83.3473,-22.1984C93.0163,-22.1984 104.8463,-22.1984 115.5804,-22.1984"/>
<polygon fill="#000000" stroke="#000000" points="115.8286,-25.6985 125.8285,-22.1984 115.8285,-18.6985 115.8286,-25.6985"/>
<text text-anchor="middle" x="104.4965" y="-25.9984" font-family="Times,serif" font-size="14.00" fill="#000000">1</text>
</g>
<!-- q2 -->
<g id="node4" class="node">
<title>q2</title>
<ellipse fill="none" stroke="#000000" cx="227.4913" cy="-22.1984" rx="19.4965" ry="19.4965"/>
<text text-anchor="middle" x="227.4913" y="-18.4984" font-family="Times,serif" font-size="14.00" fill="#000000">q2</text>
</g>
<!-- q1&#45;&gt;q2 -->
<g id="edge5" class="edge">
<title>q1&#45;&gt;q2</title>
<path fill="none" stroke="#000000" d="M165.3439,-22.1984C175.0128,-22.1984 186.8429,-22.1984 197.5769,-22.1984"/>
<polygon fill="#000000" stroke="#000000" points="197.8251,-25.6985 207.8251,-22.1984 197.825,-18.6985 197.8251,-25.6985"/>
<text text-anchor="middle" x="186.4931" y="-25.9984" font-family="Times,serif" font-size="14.00" fill="#000000">0</text>
</g>
<!-- q1&#45;&gt;q2 -->
<g id="edge6" class="edge">
<title>q1&#45;&gt;q2</title>
<path fill="none" stroke="#000000" d="M162.0176,-11.7214C168.3291,-8.2956 175.7527,-4.928 182.9931,-3.1984 189.5344,-1.6357 196.3365,-2.9089 202.5965,-5.3969"/>
<polygon fill="#000000" stroke="#000000" points="201.3671,-8.6967 211.872,-10.0737 204.5186,-2.4462 201.3671,-8.6967"/>
<text text-anchor="middle" x="186.4931" y="-6.9984" font-family="Times,serif" font-size="14.00" fill="#000000">1</text>
</g>
<!-- qf -->
<g id="node5" class="node">
<title>qf</title>
<ellipse fill="none" stroke="#000000" cx="312.188" cy="-22.1984" rx="18.3625" ry="18.3625"/>
<ellipse fill="none" stroke="#000000" cx="312.188" cy="-22.1984" rx="22.3986" ry="22.3986"/>
<text text-anchor="middle" x="312.188" y="-18.4984" font-family="Times,serif" font-size="14.00" fill="#000000">qf</text>
</g>
<!-- q2&#45;&gt;qf -->
<g id="edge7" class="edge">
<title>q2&#45;&gt;qf</title>
<path fill="none" stroke="#000000" d="M247.1353,-22.1984C256.8379,-22.1984 268.7979,-22.1984 279.8055,-22.1984"/>
<polygon fill="#000000" stroke="#000000" points="279.9627,-25.6985 289.9626,-22.1984 279.9626,-18.6985 279.9627,-25.6985"/>
<text text-anchor="middle" x="268.4896" y="-25.9984" font-family="Times,serif" font-size="14.00" fill="#000000">0</text>
</g>
<!-- q2&#45;&gt;qf -->
<g id="edge8" class="edge">
<title>q2&#45;&gt;qf</title>
<path fill="none" stroke="#000000" d="M244.0142,-11.7214C250.3256,-8.2956 257.7493,-4.928 264.9896,-3.1984 271.4171,-1.6629 278.1187,-2.6476 284.3854,-4.8105"/>
<polygon fill="#000000" stroke="#000000" points="283.2136,-8.1199 293.7729,-8.9864 286.0587,-1.7241 283.2136,-8.1199"/>
<text text-anchor="middle" x="268.4896" y="-6.9984" font-family="Times,serif" font-size="14.00" fill="#000000">1</text>
</g>
</g>
</svg>
