<?xml version="1.0" encoding="UTF-8" standalone="no"?>
<!DOCTYPE svg PUBLIC "-//W3C//DTD SVG 1.1//EN"
 "http://www.w3.org/Graphics/SVG/1.1/DTD/svg11.dtd">
<!-- Generated by graphviz version 2.40.1 (20161225.0304)
 -->
<!-- Title: %3 Pages: 1 -->
<svg width="342pt" height="152pt"
 viewBox="0.00 0.00 342.39 151.70" xmlns="http://www.w3.org/2000/svg" xmlns:xlink="http://www.w3.org/1999/xlink">
<g id="graph0" class="graph" transform="scale(1 1) rotate(0) translate(4 147.6967)">
<title>%3</title>
<polygon fill="#ffffff" stroke="transparent" points="-4,4 -4,-147.6967 338.3864,-147.6967 338.3864,4 -4,4"/>
<g id="node1" class="node">
<title></title>
</g>
<!-- q0 -->
<g id="node2" class="node">
<title>q0</title>
<ellipse fill="none" stroke="#ff0000" cx="63.4983" cy="-58.1984" rx="19.4965" ry="19.4965"/>
<text text-anchor="middle" x="63.4983" y="-54.4984" font-family="Times,serif" font-size="14.00" fill="#000000">q0</text>
</g>
<!-- &#45;&gt;q0 -->
<g id="edge1" class="edge">
<title>&#45;&gt;q0</title>
<path fill="none" stroke="#000000" d="M7.0735,-58.1984C13.2984,-58.1984 26.6285,-58.1984 38.7696,-58.1984"/>
<polygon fill="#000000" stroke="#000000" points="38.876,-59.9485 43.8759,-58.1984 38.8759,-56.4485 38.876,-59.9485"/>
</g>
<!-- q0&#45;&gt;q0 -->
<g id="edge3" class="edge">
<title>q0&#45;&gt;q0</title>
<path fill="none" stroke="#000000" d="M60.223,-77.492C59.7698,-87.114 60.8616,-95.6967 63.4983,-95.6967 65.105,-95.6967 66.1381,-92.5096 66.5974,-87.8424"/>
<polygon fill="#000000" stroke="#000000" points="70.1028,-87.5501 66.7736,-77.492 63.1038,-87.431 70.1028,-87.5501"/>
<text text-anchor="middle" x="63.4983" y="-99.4967" font-family="Times,serif" font-size="14.00" fill="#000000">b</text>
</g>
<!-- q0&#45;&gt;q0 -->
<g id="edge4" class="edge">
<title>q0&#45;&gt;q0</title>
<path fill="none" stroke="#000000" d="M58.0403,-76.9626C55.2102,-94.583 57.0295,-113.6967 63.4983,-113.6967 68.7036,-113.6967 70.8983,-101.3201 70.0824,-87.3044"/>
<polygon fill="#000000" stroke="#000000" points="73.5183,-86.5249 68.9563,-76.9626 66.5595,-87.2827 73.5183,-86.5249"/>
<text text-anchor="middle" x="63.4983" y="-117.4967" font-family="Times,serif" font-size="14.00" fill="#000000">c</text>
</g>
<!-- q1 -->
<g id="node3" class="node">
<title>q1</title>
<ellipse fill="none" stroke="#000000" cx="145.4948" cy="-67.1984" rx="19.4965" ry="19.4965"/>
<text text-anchor="middle" x="145.4948" y="-63.4984" font-family="Times,serif" font-size="14.00" fill="#000000">q1</text>
</g>
<!-- q0&#45;&gt;q1 -->
<g id="edge2" class="edge">
<title>q0&#45;&gt;q1</title>
<path fill="none" stroke="#000000" d="M75.5853,-74.0189C82.1939,-81.3442 91.0547,-89.2795 100.9965,-93.1984 109.0137,-96.3586 117.2968,-93.4608 124.511,-88.616"/>
<polygon fill="#000000" stroke="#000000" points="126.7984,-91.2681 132.4087,-82.2807 122.4182,-85.8078 126.7984,-91.2681"/>
<text text-anchor="middle" x="104.4965" y="-97.9984" font-family="Times,serif" font-size="14.00" fill="#000000">a</text>
</g>
<!-- q1&#45;&gt;q0 -->
<g id="edge6" class="edge">
<title>q1&#45;&gt;q0</title>
<path fill="none" stroke="#000000" d="M125.9181,-65.0496C116.062,-63.9678 103.909,-62.6339 92.9533,-61.4314"/>
<polygon fill="#000000" stroke="#000000" points="93.2525,-57.9433 82.9303,-60.3313 92.4887,-64.9015 93.2525,-57.9433"/>
<text text-anchor="middle" x="104.4965" y="-65.9984" font-family="Times,serif" font-size="14.00" fill="#000000">b</text>
</g>
<!-- q1&#45;&gt;q0 -->
<g id="edge7" class="edge">
<title>q1&#45;&gt;q0</title>
<path fill="none" stroke="#000000" d="M130.4204,-54.7594C123.934,-50.1805 116.0083,-45.5427 107.9965,-43.1984 102.0818,-41.4676 95.7801,-42.067 89.8358,-43.7712"/>
<polygon fill="#000000" stroke="#000000" points="88.3603,-40.5892 80.3006,-47.4661 90.8896,-47.1163 88.3603,-40.5892"/>
<text text-anchor="middle" x="104.4965" y="-46.9984" font-family="Times,serif" font-size="14.00" fill="#000000">c</text>
</g>
<!-- q2 -->
<g id="node4" class="node">
<title>q2</title>
<ellipse fill="none" stroke="#000000" cx="227.4913" cy="-22.1984" rx="19.4965" ry="19.4965"/>
<text text-anchor="middle" x="227.4913" y="-18.4984" font-family="Times,serif" font-size="14.00" fill="#000000">q2</text>
</g>
<!-- q1&#45;&gt;q2 -->
<g id="edge5" class="edge">
<title>q1&#45;&gt;q2</title>
<path fill="none" stroke="#000000" d="M162.8842,-57.655C173.9728,-51.5696 188.5566,-43.5659 201.0618,-36.703"/>
<polygon fill="#000000" stroke="#000000" points="203.0444,-39.6075 210.1271,-31.728 199.6765,-33.4708 203.0444,-39.6075"/>
<text text-anchor="middle" x="186.4931" y="-48.9984" font-family="Times,serif" font-size="14.00" fill="#000000">a</text>
</g>
<!-- q2&#45;&gt;q0 -->
<g id="edge10" class="edge">
<title>q2&#45;&gt;q0</title>
<path fill="none" stroke="#000000" d="M208.0607,-19.9888C187.3689,-18.2316 153.8334,-17.102 125.9965,-24.1984 112.6246,-27.6073 99.0212,-34.516 87.935,-41.2208"/>
<polygon fill="#000000" stroke="#000000" points="85.8381,-38.4063 79.2749,-46.7234 89.5922,-44.3145 85.8381,-38.4063"/>
<text text-anchor="middle" x="145.4948" y="-27.9984" font-family="Times,serif" font-size="14.00" fill="#000000">c</text>
</g>
<!-- q2&#45;&gt;q2 -->
<g id="edge8" class="edge">
<title>q2&#45;&gt;q2</title>
<path fill="none" stroke="#000000" d="M220.3008,-40.7202C219.0789,-50.6501 221.4757,-59.6967 227.4913,-59.6967 231.2511,-59.6967 233.5973,-56.1629 234.5299,-51.0882"/>
<polygon fill="#000000" stroke="#000000" points="238.0348,-50.7704 234.6819,-40.7202 231.0356,-50.6678 238.0348,-50.7704"/>
<text text-anchor="middle" x="227.4913" y="-63.4967" font-family="Times,serif" font-size="14.00" fill="#000000">a</text>
</g>
<!-- qf -->
<g id="node5" class="node">
<title>qf</title>
<ellipse fill="none" stroke="#000000" cx="312.188" cy="-22.1984" rx="18.3625" ry="18.3625"/>
<ellipse fill="none" stroke="#000000" cx="312.188" cy="-22.1984" rx="22.3986" ry="22.3986"/>
<text text-anchor="middle" x="312.188" y="-18.4984" font-family="Times,serif" font-size="14.00" fill="#000000">qf</text>
</g>
<!-- q2&#45;&gt;qf -->
<g id="edge9" class="edge">
<title>q2&#45;&gt;qf</title>
<path fill="none" stroke="#000000" d="M247.1353,-22.1984C256.8379,-22.1984 268.7979,-22.1984 279.8055,-22.1984"/>
<polygon fill="#000000" stroke="#000000" points="279.9627,-25.6985 289.9626,-22.1984 279.9626,-18.6985 279.9627,-25.6985"/>
<text text-anchor="middle" x="268.4896" y="-25.9984" font-family="Times,serif" font-size="14.00" fill="#000000">b</text>
</g>
<!-- qf&#45;&gt;qf -->
<g id="edge11" class="edge">
<title>qf&#45;&gt;qf</title>
<path fill="none" stroke="#000000" d="M309.5944,-44.5209C309.3821,-54.1513 310.2466,-62.3968 312.188,-62.3968 313.371,-62.3968 314.1542,-59.3349 314.5375,-54.7636"/>
<polygon fill="#000000" stroke="#000000" points="318.0422,-54.6015 314.7816,-44.5209 311.0442,-54.4346 318.0422,-54.6015"/>
<text text-anchor="middle" x="312.188" y="-66.1968" font-family="Times,serif" font-size="14.00" fill="#000000">a</text>
</g>
<!-- qf&#45;&gt;qf -->
<g id="edge12" class="edge">
<title>qf&#45;&gt;qf</title>
<path fill="none" stroke="#000000" d="M307.7074,-43.99C305.8546,-61.8492 307.3482,-80.3968 312.188,-80.3968 316.1204,-80.3968 317.8437,-68.1525 317.3579,-53.9816"/>
<polygon fill="#000000" stroke="#000000" points="320.8486,-53.7254 316.6686,-43.99 313.8652,-54.2072 320.8486,-53.7254"/>
<text text-anchor="middle" x="312.188" y="-84.1968" font-family="Times,serif" font-size="14.00" fill="#000000">b</text>
</g>
<!-- qf&#45;&gt;qf -->
<g id="edge13" class="edge">
<title>qf&#45;&gt;qf</title>
<path fill="none" stroke="#000000" d="M306.4707,-43.6505C302.2842,-68.9225 304.19,-98.3968 312.188,-98.3968 319.1238,-98.3968 321.4781,-76.2317 319.251,-53.8633"/>
<polygon fill="#000000" stroke="#000000" points="322.6818,-53.1076 317.9054,-43.6505 315.7418,-54.0221 322.6818,-53.1076"/>
<text text-anchor="middle" x="312.188" y="-102.1968" font-family="Times,serif" font-size="14.00" fill="#000000">c</text>
</g>
</g>
</svg>
