<?xml version="1.0" encoding="UTF-8" standalone="no"?>
<!DOCTYPE svg PUBLIC "-//W3C//DTD SVG 1.1//EN"
 "http://www.w3.org/Graphics/SVG/1.1/DTD/svg11.dtd">
<!-- Generated by graphviz version 2.40.1 (20161225.0304)
 -->
<!-- Title: %3 Pages: 1 -->
<svg width="298pt" height="118pt"
 viewBox="0.00 0.00 298.39 118.40" xmlns="http://www.w3.org/2000/svg" xmlns:xlink="http://www.w3.org/1999/xlink">
<g id="graph0" class="graph" transform="scale(1 1) rotate(0) translate(4 114.3968)">
<title>%3</title>
<polygon fill="#ffffff" stroke="transparent" points="-4,4 -4,-114.3968 294.3864,-114.3968 294.3864,4 -4,4"/>
<!-- q0 -->
<g id="node1" class="node">
<title>q0</title>
<ellipse fill="none" stroke="#000000" cx="19.4983" cy="-22.1984" rx="19.4965" ry="19.4965"/>
<text text-anchor="middle" x="19.4983" y="-18.4984" font-family="Times,serif" font-size="14.00" fill="#000000">q0</text>
</g>
<!-- q0&#45;&gt;q0 -->
<g id="edge1" class="edge">
<title>q0&#45;&gt;q0</title>
<path fill="none" stroke="#000000" d="M12.3077,-40.7202C11.0858,-50.6501 13.4826,-59.6967 19.4983,-59.6967 23.258,-59.6967 25.6042,-56.1629 26.5368,-51.0882"/>
<polygon fill="#000000" stroke="#000000" points="30.0418,-50.7704 26.6888,-40.7202 23.0425,-50.6678 30.0418,-50.7704"/>
<text text-anchor="middle" x="19.4983" y="-63.4967" font-family="Times,serif" font-size="14.00" fill="#000000">1</text>
</g>
<!-- q1 -->
<g id="node2" class="node">
<title>q1</title>
<ellipse fill="none" stroke="#000000" cx="101.4948" cy="-22.1984" rx="19.4965" ry="19.4965"/>
<text text-anchor="middle" x="101.4948" y="-18.4984" font-family="Times,serif" font-size="14.00" fill="#000000">q1</text>
</g>
<!-- q0&#45;&gt;q1 -->
<g id="edge2" class="edge">
<title>q0&#45;&gt;q1</title>
<path fill="none" stroke="#000000" d="M39.3473,-22.1984C49.0163,-22.1984 60.8463,-22.1984 71.5804,-22.1984"/>
<polygon fill="#000000" stroke="#000000" points="71.8286,-25.6985 81.8285,-22.1984 71.8285,-18.6985 71.8286,-25.6985"/>
<text text-anchor="middle" x="60.4965" y="-25.9984" font-family="Times,serif" font-size="14.00" fill="#000000">0</text>
</g>
<!-- q1&#45;&gt;q1 -->
<g id="edge3" class="edge">
<title>q1&#45;&gt;q1</title>
<path fill="none" stroke="#000000" d="M94.3043,-40.7202C93.0823,-50.6501 95.4792,-59.6967 101.4948,-59.6967 105.2546,-59.6967 107.6008,-56.1629 108.5334,-51.0882"/>
<polygon fill="#000000" stroke="#000000" points="112.0383,-50.7704 108.6854,-40.7202 105.039,-50.6678 112.0383,-50.7704"/>
<text text-anchor="middle" x="101.4948" y="-63.4967" font-family="Times,serif" font-size="14.00" fill="#000000">1</text>
</g>
<!-- q2 -->
<g id="node3" class="node">
<title>q2</title>
<ellipse fill="none" stroke="#000000" cx="183.4913" cy="-22.1984" rx="19.4965" ry="19.4965"/>
<text text-anchor="middle" x="183.4913" y="-18.4984" font-family="Times,serif" font-size="14.00" fill="#000000">q2</text>
</g>
<!-- q1&#45;&gt;q2 -->
<g id="edge4" class="edge">
<title>q1&#45;&gt;q2</title>
<path fill="none" stroke="#000000" d="M121.3439,-22.1984C131.0128,-22.1984 142.8429,-22.1984 153.5769,-22.1984"/>
<polygon fill="#000000" stroke="#000000" points="153.8251,-25.6985 163.8251,-22.1984 153.825,-18.6985 153.8251,-25.6985"/>
<text text-anchor="middle" x="142.4931" y="-25.9984" font-family="Times,serif" font-size="14.00" fill="#000000">0</text>
</g>
<!-- q2&#45;&gt;q2 -->
<g id="edge5" class="edge">
<title>q2&#45;&gt;q2</title>
<path fill="none" stroke="#000000" d="M176.3008,-40.7202C175.0789,-50.6501 177.4757,-59.6967 183.4913,-59.6967 187.2511,-59.6967 189.5973,-56.1629 190.5299,-51.0882"/>
<polygon fill="#000000" stroke="#000000" points="194.0348,-50.7704 190.6819,-40.7202 187.0356,-50.6678 194.0348,-50.7704"/>
<text text-anchor="middle" x="183.4913" y="-63.4967" font-family="Times,serif" font-size="14.00" fill="#000000">1</text>
</g>
<!-- qf -->
<g id="node4" class="node">
<title>qf</title>
<ellipse fill="none" stroke="#ff0000" cx="268.188" cy="-22.1984" rx="18.3625" ry="18.3625"/>
<ellipse fill="none" stroke="#ff0000" cx="268.188" cy="-22.1984" rx="22.3986" ry="22.3986"/>
<text text-anchor="middle" x="268.188" y="-18.4984" font-family="Times,serif" font-size="14.00" fill="#000000">qf</text>
</g>
<!-- q2&#45;&gt;qf -->
<g id="edge6" class="edge">
<title>q2&#45;&gt;qf</title>
<path fill="none" stroke="#000000" d="M203.1353,-22.1984C212.8379,-22.1984 224.7979,-22.1984 235.8055,-22.1984"/>
<polygon fill="#000000" stroke="#000000" points="235.9627,-25.6985 245.9626,-22.1984 235.9626,-18.6985 235.9627,-25.6985"/>
<text text-anchor="middle" x="224.4896" y="-25.9984" font-family="Times,serif" font-size="14.00" fill="#000000">0</text>
</g>
<!-- qf&#45;&gt;qf -->
<g id="edge7" class="edge">
<title>qf&#45;&gt;qf</title>
<path fill="none" stroke="#000000" d="M264.312,-44.1132C263.9429,-53.9174 265.2349,-62.3968 268.188,-62.3968 270.0337,-62.3968 271.2305,-59.0845 271.7785,-54.2067"/>
<polygon fill="#000000" stroke="#000000" points="275.2797,-54.2082 272.064,-44.1132 268.2825,-54.0102 275.2797,-54.2082"/>
<text text-anchor="middle" x="268.188" y="-66.1968" font-family="Times,serif" font-size="14.00" fill="#000000">0</text>
</g>
<!-- qf&#45;&gt;qf -->
<g id="edge8" class="edge">
<title>qf&#45;&gt;qf</title>
<path fill="none" stroke="#000000" d="M261.5146,-43.6874C258.6628,-61.6391 260.8872,-80.3968 268.188,-80.3968 274.1199,-80.3968 276.7006,-68.0138 275.9302,-53.7412"/>
<polygon fill="#000000" stroke="#000000" points="279.399,-53.2613 274.8614,-43.6874 272.4382,-54.0013 279.399,-53.2613"/>
<text text-anchor="middle" x="268.188" y="-84.1968" font-family="Times,serif" font-size="14.00" fill="#000000">1</text>
</g>
</g>
</svg>
