<?xml version="1.0" encoding="UTF-8" standalone="no"?>
<!DOCTYPE svg PUBLIC "-//W3C//DTD SVG 1.1//EN"
 "http://www.w3.org/Graphics/SVG/1.1/DTD/svg11.dtd">
<!-- Generated by graphviz version 2.40.1 (20161225.0304)
 -->
<!-- Title: %3 Pages: 1 -->
<svg width="260pt" height="458pt"
 viewBox="0.00 0.00 260.39 458.00" xmlns="http://www.w3.org/2000/svg" xmlns:xlink="http://www.w3.org/1999/xlink">
<g id="graph0" class="graph" transform="scale(1 1) rotate(0) translate(4 453.9965)">
<title>%3</title>
<polygon fill="#ffffff" stroke="transparent" points="-4,4 -4,-453.9965 256.3899,-453.9965 256.3899,4 -4,4"/>
<g id="node1" class="node">
<title></title>
</g>
<!-- q0 -->
<g id="node2" class="node">
<title>q0</title>
<ellipse fill="none" stroke="#000000" cx="63.4983" cy="-175.4983" rx="19.4965" ry="19.4965"/>
<text text-anchor="middle" x="63.4983" y="-171.7983" font-family="Times,serif" font-size="14.00" fill="#000000">q0</text>
</g>
<!-- &#45;&gt;q0 -->
<g id="edge1" class="edge">
<title>&#45;&gt;q0</title>
<path fill="none" stroke="#000000" d="M7.0735,-175.4983C13.2984,-175.4983 26.6285,-175.4983 38.7696,-175.4983"/>
<polygon fill="#000000" stroke="#000000" points="38.876,-177.2484 43.8759,-175.4983 38.8759,-173.7484 38.876,-177.2484"/>
</g>
<!-- q0&#45;&gt;q0 -->
<g id="edge2" class="edge">
<title>q0&#45;&gt;q0</title>
<path fill="none" stroke="#000000" d="M61.3032,-195.1762C61.0322,-204.6412 61.7639,-212.9965 63.4983,-212.9965 64.5552,-212.9965 65.2397,-209.8939 65.5519,-205.3282"/>
<polygon fill="#000000" stroke="#000000" points="69.0536,-205.224 65.6933,-195.1762 62.0543,-205.1264 69.0536,-205.224"/>
<text text-anchor="middle" x="63.4983" y="-216.7965" font-family="Times,serif" font-size="14.00" fill="#000000">a</text>
</g>
<!-- q0&#45;&gt;q0 -->
<g id="edge4" class="edge">
<title>q0&#45;&gt;q0</title>
<path fill="none" stroke="#000000" d="M59.7992,-194.8376C57.9996,-212.2961 59.2326,-230.9965 63.4983,-230.9965 66.9308,-230.9965 68.3996,-218.8876 67.9047,-205.0607"/>
<polygon fill="#000000" stroke="#000000" points="71.3794,-204.5721 67.1974,-194.8376 64.3961,-205.0553 71.3794,-204.5721"/>
<text text-anchor="middle" x="63.4983" y="-234.7965" font-family="Times,serif" font-size="14.00" fill="#000000">b</text>
</g>
<!-- q0&#45;&gt;q0 -->
<g id="edge6" class="edge">
<title>q0&#45;&gt;q0</title>
<path fill="none" stroke="#000000" d="M58.8251,-194.6956C54.9445,-219.3883 56.5022,-248.9965 63.4983,-248.9965 69.5652,-248.9965 71.5424,-226.7308 69.4299,-204.7133"/>
<polygon fill="#000000" stroke="#000000" points="72.8906,-204.1813 68.1714,-194.6956 65.9452,-205.0538 72.8906,-204.1813"/>
<text text-anchor="middle" x="63.4983" y="-252.7965" font-family="Times,serif" font-size="14.00" fill="#000000">c</text>
</g>
<!-- q1 -->
<g id="node3" class="node">
<title>q1</title>
<ellipse fill="none" stroke="#ff0000" cx="145.4948" cy="-331.4983" rx="19.4965" ry="19.4965"/>
<text text-anchor="middle" x="145.4948" y="-327.7983" font-family="Times,serif" font-size="14.00" fill="#000000">q1</text>
</g>
<!-- q0&#45;&gt;q1 -->
<g id="edge3" class="edge">
<title>q0&#45;&gt;q1</title>
<path fill="none" stroke="#000000" d="M71.4559,-193.5614C82.6734,-218.5522 104.2101,-264.8522 125.9965,-302.4983 126.8531,-303.9784 127.7574,-305.4842 128.6886,-306.992"/>
<polygon fill="#000000" stroke="#000000" points="125.8069,-308.9814 134.17,-315.4859 131.6885,-305.1858 125.8069,-308.9814"/>
<text text-anchor="middle" x="104.4965" y="-271.2983" font-family="Times,serif" font-size="14.00" fill="#000000">a</text>
</g>
<!-- q2 -->
<g id="node4" class="node">
<title>q2</title>
<ellipse fill="none" stroke="#000000" cx="145.4948" cy="-175.4983" rx="19.4965" ry="19.4965"/>
<text text-anchor="middle" x="145.4948" y="-171.7983" font-family="Times,serif" font-size="14.00" fill="#000000">q2</text>
</g>
<!-- q0&#45;&gt;q2 -->
<g id="edge5" class="edge">
<title>q0&#45;&gt;q2</title>
<path fill="none" stroke="#000000" d="M83.3473,-175.4983C93.0163,-175.4983 104.8463,-175.4983 115.5804,-175.4983"/>
<polygon fill="#000000" stroke="#000000" points="115.8286,-178.9984 125.8285,-175.4983 115.8285,-171.9984 115.8286,-178.9984"/>
<text text-anchor="middle" x="104.4965" y="-179.2983" font-family="Times,serif" font-size="14.00" fill="#000000">b</text>
</g>
<!-- q3 -->
<g id="node5" class="node">
<title>q3</title>
<ellipse fill="none" stroke="#000000" cx="145.4948" cy="-19.4983" rx="19.4965" ry="19.4965"/>
<text text-anchor="middle" x="145.4948" y="-15.7983" font-family="Times,serif" font-size="14.00" fill="#000000">q3</text>
</g>
<!-- q0&#45;&gt;q3 -->
<g id="edge7" class="edge">
<title>q0&#45;&gt;q3</title>
<path fill="none" stroke="#000000" d="M72.5866,-158.2075C86.8704,-131.0323 114.678,-78.1278 131.5186,-46.0883"/>
<polygon fill="#000000" stroke="#000000" points="134.8112,-47.3467 136.3657,-36.8665 128.615,-44.0898 134.8112,-47.3467"/>
<text text-anchor="middle" x="104.4965" y="-105.2983" font-family="Times,serif" font-size="14.00" fill="#000000">c</text>
</g>
<!-- q1&#45;&gt;q1 -->
<g id="edge8" class="edge">
<title>q1&#45;&gt;q1</title>
<path fill="none" stroke="#000000" d="M143.0558,-351.1762C142.7547,-360.6412 143.5677,-368.9965 145.4948,-368.9965 146.6691,-368.9965 147.4297,-365.8939 147.7766,-361.3282"/>
<polygon fill="#000000" stroke="#000000" points="151.2785,-361.2292 147.9338,-351.1762 144.2793,-361.1208 151.2785,-361.2292"/>
<text text-anchor="middle" x="145.4948" y="-372.7965" font-family="Times,serif" font-size="14.00" fill="#000000">a</text>
</g>
<!-- q1&#45;&gt;q1 -->
<g id="edge10" class="edge">
<title>q1&#45;&gt;q1</title>
<path fill="none" stroke="#000000" d="M141.3847,-350.8376C139.3852,-368.2961 140.7552,-386.9965 145.4948,-386.9965 149.3087,-386.9965 150.9407,-374.8876 150.3909,-361.0607"/>
<polygon fill="#000000" stroke="#000000" points="153.8613,-360.5398 149.6049,-350.8376 146.8819,-361.0765 153.8613,-360.5398"/>
<text text-anchor="middle" x="145.4948" y="-390.7965" font-family="Times,serif" font-size="14.00" fill="#000000">b</text>
</g>
<!-- q1&#45;&gt;q1 -->
<g id="edge11" class="edge">
<title>q1&#45;&gt;q1</title>
<path fill="none" stroke="#000000" d="M140.3679,-350.3237C135.9733,-375.09 137.6823,-404.9965 145.4948,-404.9965 152.2697,-404.9965 154.4547,-382.5064 152.0497,-360.3814"/>
<polygon fill="#000000" stroke="#000000" points="155.4928,-359.7324 150.6218,-350.3237 148.5623,-360.7164 155.4928,-359.7324"/>
<text text-anchor="middle" x="145.4948" y="-408.7965" font-family="Times,serif" font-size="14.00" fill="#000000">c</text>
</g>
<!-- qf -->
<g id="node6" class="node">
<title>qf</title>
<ellipse fill="none" stroke="#ff0000" cx="230.1915" cy="-175.4983" rx="18.3625" ry="18.3625"/>
<ellipse fill="none" stroke="#ff0000" cx="230.1915" cy="-175.4983" rx="22.3986" ry="22.3986"/>
<text text-anchor="middle" x="230.1915" y="-171.7983" font-family="Times,serif" font-size="14.00" fill="#000000">qf</text>
</g>
<!-- q1&#45;&gt;qf -->
<g id="edge9" class="edge">
<title>q1&#45;&gt;qf</title>
<path fill="none" stroke="#000000" d="M156.7691,-315.4564C159.5557,-311.2979 162.4648,-306.7828 164.9931,-302.4983 184.2036,-269.9437 203.6654,-231.1021 216.2606,-205.0194"/>
<polygon fill="#000000" stroke="#000000" points="219.5677,-206.2175 220.7368,-195.6873 213.2562,-203.1901 219.5677,-206.2175"/>
<text text-anchor="middle" x="186.4931" y="-271.2983" font-family="Times,serif" font-size="14.00" fill="#000000">a</text>
</g>
<!-- q2&#45;&gt;q2 -->
<g id="edge12" class="edge">
<title>q2&#45;&gt;q2</title>
<path fill="none" stroke="#000000" d="M143.0558,-195.1762C142.7547,-204.6412 143.5677,-212.9965 145.4948,-212.9965 146.6691,-212.9965 147.4297,-209.8939 147.7766,-205.3282"/>
<polygon fill="#000000" stroke="#000000" points="151.2785,-205.2292 147.9338,-195.1762 144.2793,-205.1208 151.2785,-205.2292"/>
<text text-anchor="middle" x="145.4948" y="-216.7965" font-family="Times,serif" font-size="14.00" fill="#000000">a</text>
</g>
<!-- q2&#45;&gt;q2 -->
<g id="edge13" class="edge">
<title>q2&#45;&gt;q2</title>
<path fill="none" stroke="#000000" d="M141.3847,-194.8376C139.3852,-212.2961 140.7552,-230.9965 145.4948,-230.9965 149.3087,-230.9965 150.9407,-218.8876 150.3909,-205.0607"/>
<polygon fill="#000000" stroke="#000000" points="153.8613,-204.5398 149.6049,-194.8376 146.8819,-205.0765 153.8613,-204.5398"/>
<text text-anchor="middle" x="145.4948" y="-234.7965" font-family="Times,serif" font-size="14.00" fill="#000000">b</text>
</g>
<!-- q2&#45;&gt;q2 -->
<g id="edge15" class="edge">
<title>q2&#45;&gt;q2</title>
<path fill="none" stroke="#000000" d="M140.3679,-194.3237C135.9733,-219.09 137.6823,-248.9965 145.4948,-248.9965 152.2697,-248.9965 154.4547,-226.5064 152.0497,-204.3814"/>
<polygon fill="#000000" stroke="#000000" points="155.4928,-203.7324 150.6218,-194.3237 148.5623,-204.7164 155.4928,-203.7324"/>
<text text-anchor="middle" x="145.4948" y="-252.7965" font-family="Times,serif" font-size="14.00" fill="#000000">c</text>
</g>
<!-- q2&#45;&gt;qf -->
<g id="edge14" class="edge">
<title>q2&#45;&gt;qf</title>
<path fill="none" stroke="#000000" d="M165.1388,-175.4983C174.8413,-175.4983 186.8014,-175.4983 197.809,-175.4983"/>
<polygon fill="#000000" stroke="#000000" points="197.9661,-178.9984 207.9661,-175.4983 197.9661,-171.9984 197.9661,-178.9984"/>
<text text-anchor="middle" x="186.4931" y="-179.2983" font-family="Times,serif" font-size="14.00" fill="#000000">b</text>
</g>
<!-- q3&#45;&gt;q3 -->
<g id="edge16" class="edge">
<title>q3&#45;&gt;q3</title>
<path fill="none" stroke="#000000" d="M143.0558,-39.1762C142.7547,-48.6412 143.5677,-56.9965 145.4948,-56.9965 146.6691,-56.9965 147.4297,-53.8939 147.7766,-49.3282"/>
<polygon fill="#000000" stroke="#000000" points="151.2785,-49.2292 147.9338,-39.1762 144.2793,-49.1208 151.2785,-49.2292"/>
<text text-anchor="middle" x="145.4948" y="-60.7965" font-family="Times,serif" font-size="14.00" fill="#000000">a</text>
</g>
<!-- q3&#45;&gt;q3 -->
<g id="edge17" class="edge">
<title>q3&#45;&gt;q3</title>
<path fill="none" stroke="#000000" d="M141.3847,-38.8376C139.3852,-56.2961 140.7552,-74.9965 145.4948,-74.9965 149.3087,-74.9965 150.9407,-62.8876 150.3909,-49.0607"/>
<polygon fill="#000000" stroke="#000000" points="153.8613,-48.5398 149.6049,-38.8376 146.8819,-49.0765 153.8613,-48.5398"/>
<text text-anchor="middle" x="145.4948" y="-78.7965" font-family="Times,serif" font-size="14.00" fill="#000000">b</text>
</g>
<!-- q3&#45;&gt;q3 -->
<g id="edge18" class="edge">
<title>q3&#45;&gt;q3</title>
<path fill="none" stroke="#000000" d="M140.3679,-38.3237C135.9733,-63.09 137.6823,-92.9965 145.4948,-92.9965 152.2697,-92.9965 154.4547,-70.5064 152.0497,-48.3814"/>
<polygon fill="#000000" stroke="#000000" points="155.4928,-47.7324 150.6218,-38.3237 148.5623,-48.7164 155.4928,-47.7324"/>
<text text-anchor="middle" x="145.4948" y="-96.7965" font-family="Times,serif" font-size="14.00" fill="#000000">c</text>
</g>
<!-- q3&#45;&gt;qf -->
<g id="edge19" class="edge">
<title>q3&#45;&gt;qf</title>
<path fill="none" stroke="#000000" d="M154.8824,-36.789C169.3082,-63.3593 197.0881,-114.5263 214.5769,-146.7382"/>
<polygon fill="#000000" stroke="#000000" points="211.585,-148.5631 219.4323,-155.6814 217.7368,-145.2231 211.585,-148.5631"/>
<text text-anchor="middle" x="186.4931" y="-101.2983" font-family="Times,serif" font-size="14.00" fill="#000000">c</text>
</g>
</g>
</svg>
