<?xml version="1.0" encoding="UTF-8" standalone="no"?>
<!DOCTYPE svg PUBLIC "-//W3C//DTD SVG 1.1//EN"
 "http://www.w3.org/Graphics/SVG/1.1/DTD/svg11.dtd">
<!-- Generated by graphviz version 2.40.1 (20161225.0304)
 -->
<!-- Title: %3 Pages: 1 -->
<svg width="312pt" height="105pt"
 viewBox="0.00 0.00 312.39 105.00" xmlns="http://www.w3.org/2000/svg" xmlns:xlink="http://www.w3.org/1999/xlink">
<g id="graph0" class="graph" transform="scale(1 1) rotate(0) translate(4 100.9983)">
<title>%3</title>
<polygon fill="#ffffff" stroke="transparent" points="-4,4 -4,-100.9983 308.3864,-100.9983 308.3864,4 -4,4"/>
<g id="node1" class="node">
<title></title>
</g>
<!-- q0 -->
<g id="node2" class="node">
<title>q0</title>
<ellipse fill="none" stroke="#000000" cx="19.4983" cy="-44.5" rx="19.4965" ry="19.4965"/>
<text text-anchor="middle" x="19.4983" y="-40.8" font-family="Times,serif" font-size="14.00" fill="#000000">q0</text>
</g>
<!-- q0&#45;&gt;q0 -->
<g id="edge2" class="edge">
<title>q0&#45;&gt;q0</title>
<path fill="none" stroke="#000000" d="M11.3471,-62.2464C9.6835,-72.4757 12.4006,-81.9983 19.4983,-81.9983 24.0452,-81.9983 26.7943,-78.0902 27.7457,-72.5919"/>
<polygon fill="#000000" stroke="#000000" points="31.2424,-72.2134 27.6495,-62.2464 24.2427,-72.2785 31.2424,-72.2134"/>
<text text-anchor="middle" x="19.4983" y="-85.7983" font-family="Times,serif" font-size="14.00" fill="#000000">b, c</text>
</g>
<!-- q1 -->
<g id="node3" class="node">
<title>q1</title>
<ellipse fill="none" stroke="#ff0000" cx="115.4948" cy="-63.5" rx="19.4965" ry="19.4965"/>
<text text-anchor="middle" x="115.4948" y="-59.8" font-family="Times,serif" font-size="14.00" fill="#000000">q1</text>
</g>
<!-- q0&#45;&gt;q1 -->
<g id="edge1" class="edge">
<title>q0&#45;&gt;q1</title>
<path fill="none" stroke="#ff0000" d="M36.9954,-53.475C43.1594,-56.2261 50.2385,-58.9371 56.9965,-60.5 66.2108,-62.6309 76.4505,-63.6095 85.7546,-63.9918"/>
<polygon fill="#ff0000" stroke="#ff0000" points="85.6866,-67.491 95.7572,-64.1997 85.8321,-60.4926 85.6866,-67.491"/>
<text text-anchor="middle" x="67.4965" y="-67.3" font-family="Times,serif" font-size="14.00" fill="#000000">a</text>
</g>
<!-- q1&#45;&gt;q0 -->
<g id="edge4" class="edge">
<title>q1&#45;&gt;q0</title>
<path fill="none" stroke="#000000" d="M99.5459,-51.6192C93.1807,-47.5749 85.5717,-43.5581 77.9965,-41.5 68.7273,-38.9816 58.3347,-38.73 48.9094,-39.4152"/>
<polygon fill="#000000" stroke="#000000" points="48.3532,-35.955 38.7904,-40.5161 49.1103,-42.914 48.3532,-35.955"/>
<text text-anchor="middle" x="67.4965" y="-45.3" font-family="Times,serif" font-size="14.00" fill="#000000">b, c</text>
</g>
<!-- q2 -->
<g id="node4" class="node">
<title>q2</title>
<ellipse fill="none" stroke="#000000" cx="197.4913" cy="-27.5" rx="19.4965" ry="19.4965"/>
<text text-anchor="middle" x="197.4913" y="-23.8" font-family="Times,serif" font-size="14.00" fill="#000000">q2</text>
</g>
<!-- q1&#45;&gt;q2 -->
<g id="edge3" class="edge">
<title>q1&#45;&gt;q2</title>
<path fill="none" stroke="#000000" d="M133.6925,-55.5104C144.4889,-50.7703 158.3784,-44.6722 170.4397,-39.3768"/>
<polygon fill="#000000" stroke="#000000" points="171.8773,-42.5682 179.6266,-35.3434 169.0632,-36.1587 171.8773,-42.5682"/>
<text text-anchor="middle" x="156.4931" y="-50.3" font-family="Times,serif" font-size="14.00" fill="#000000">a</text>
</g>
<!-- q2&#45;&gt;q0 -->
<g id="edge7" class="edge">
<title>q2&#45;&gt;q0</title>
<path fill="none" stroke="#000000" d="M178.1134,-24.7655C165.7945,-23.1672 149.4918,-21.3094 134.9931,-20.5 117.6882,-19.5339 113.1285,-17.8756 95.9965,-20.5 79.5,-23.027 61.6757,-28.4515 47.3858,-33.505"/>
<polygon fill="#000000" stroke="#000000" points="45.8545,-30.3388 37.6748,-37.0725 48.2684,-36.9094 45.8545,-30.3388"/>
<text text-anchor="middle" x="115.4948" y="-24.3" font-family="Times,serif" font-size="14.00" fill="#000000">c</text>
</g>
<!-- q2&#45;&gt;q2 -->
<g id="edge5" class="edge">
<title>q2&#45;&gt;q2</title>
<path fill="none" stroke="#000000" d="M190.3008,-46.0218C189.0789,-55.9518 191.4757,-64.9983 197.4913,-64.9983 201.2511,-64.9983 203.5973,-61.4645 204.5299,-56.3898"/>
<polygon fill="#000000" stroke="#000000" points="208.0348,-56.0721 204.6819,-46.0218 201.0356,-55.9694 208.0348,-56.0721"/>
<text text-anchor="middle" x="197.4913" y="-68.7983" font-family="Times,serif" font-size="14.00" fill="#000000">a</text>
</g>
<!-- qf -->
<g id="node5" class="node">
<title>qf</title>
<ellipse fill="none" stroke="#000000" cx="282.188" cy="-27.5" rx="18.3625" ry="18.3625"/>
<ellipse fill="none" stroke="#000000" cx="282.188" cy="-27.5" rx="22.3986" ry="22.3986"/>
<text text-anchor="middle" x="282.188" y="-23.8" font-family="Times,serif" font-size="14.00" fill="#000000">qf</text>
</g>
<!-- q2&#45;&gt;qf -->
<g id="edge6" class="edge">
<title>q2&#45;&gt;qf</title>
<path fill="none" stroke="#000000" d="M217.1353,-27.5C226.8379,-27.5 238.7979,-27.5 249.8055,-27.5"/>
<polygon fill="#000000" stroke="#000000" points="249.9627,-31.0001 259.9626,-27.5 249.9626,-24.0001 249.9627,-31.0001"/>
<text text-anchor="middle" x="238.4896" y="-31.3" font-family="Times,serif" font-size="14.00" fill="#000000">b</text>
</g>
<!-- qf&#45;&gt;qf -->
<g id="edge8" class="edge">
<title>qf&#45;&gt;qf</title>
<path fill="none" stroke="#000000" d="M274.5053,-48.5949C273.5568,-58.7414 276.1177,-67.6984 282.188,-67.6984 286.0768,-67.6984 288.5253,-64.0224 289.5336,-58.7127"/>
<polygon fill="#000000" stroke="#000000" points="293.0357,-58.7059 289.8707,-48.5949 286.0396,-58.4727 293.0357,-58.7059"/>
<text text-anchor="middle" x="282.188" y="-71.4984" font-family="Times,serif" font-size="14.00" fill="#000000">a, b, c</text>
</g>
</g>
</svg>
