<?xml version="1.0" encoding="UTF-8" standalone="no"?>
<!DOCTYPE svg PUBLIC "-//W3C//DTD SVG 1.1//EN"
 "http://www.w3.org/Graphics/SVG/1.1/DTD/svg11.dtd">
<!-- Generated by graphviz version 2.40.1 (20161225.0304)
 -->
<!-- Title: %3 Pages: 1 -->
<svg width="298pt" height="108pt"
 viewBox="0.00 0.00 298.39 107.70" xmlns="http://www.w3.org/2000/svg" xmlns:xlink="http://www.w3.org/1999/xlink">
<g id="graph0" class="graph" transform="scale(1 1) rotate(0) translate(4 103.6984)">
<title>%3</title>
<polygon fill="#ffffff" stroke="transparent" points="-4,4 -4,-103.6984 294.3864,-103.6984 294.3864,4 -4,4"/>
<g id="node1" class="node">
<title></title>
</g>
<!-- q0 -->
<g id="node2" class="node">
<title>q0</title>
<ellipse fill="none" stroke="#000000" cx="19.4983" cy="-44.5" rx="19.4965" ry="19.4965"/>
<text text-anchor="middle" x="19.4983" y="-40.8" font-family="Times,serif" font-size="14.00" fill="#000000">q0</text>
</g>
<!-- q0&#45;&gt;q0 -->
<g id="edge1" class="edge">
<title>q0&#45;&gt;q0</title>
<path fill="none" stroke="#000000" d="M12.3077,-63.0218C11.0858,-72.9518 13.4826,-81.9983 19.4983,-81.9983 23.258,-81.9983 25.6042,-78.4645 26.5368,-73.3898"/>
<polygon fill="#000000" stroke="#000000" points="30.0418,-73.0721 26.6888,-63.0218 23.0425,-72.9694 30.0418,-73.0721"/>
<text text-anchor="middle" x="19.4983" y="-85.7983" font-family="Times,serif" font-size="14.00" fill="#000000">1</text>
</g>
<!-- q1 -->
<g id="node3" class="node">
<title>q1</title>
<ellipse fill="none" stroke="#000000" cx="101.4948" cy="-44.5" rx="19.4965" ry="19.4965"/>
<text text-anchor="middle" x="101.4948" y="-40.8" font-family="Times,serif" font-size="14.00" fill="#000000">q1</text>
</g>
<!-- q0&#45;&gt;q1 -->
<g id="edge2" class="edge">
<title>q0&#45;&gt;q1</title>
<path fill="none" stroke="#000000" d="M39.3473,-44.5C49.0163,-44.5 60.8463,-44.5 71.5804,-44.5"/>
<polygon fill="#000000" stroke="#000000" points="71.8286,-48.0001 81.8285,-44.5 71.8285,-41.0001 71.8286,-48.0001"/>
<text text-anchor="middle" x="60.4965" y="-48.3" font-family="Times,serif" font-size="14.00" fill="#000000">0</text>
</g>
<!-- q1&#45;&gt;q1 -->
<g id="edge3" class="edge">
<title>q1&#45;&gt;q1</title>
<path fill="none" stroke="#000000" d="M94.3043,-63.0218C93.0823,-72.9518 95.4792,-81.9983 101.4948,-81.9983 105.2546,-81.9983 107.6008,-78.4645 108.5334,-73.3898"/>
<polygon fill="#000000" stroke="#000000" points="112.0383,-73.0721 108.6854,-63.0218 105.039,-72.9694 112.0383,-73.0721"/>
<text text-anchor="middle" x="101.4948" y="-85.7983" font-family="Times,serif" font-size="14.00" fill="#000000">1</text>
</g>
<!-- q2 -->
<g id="node4" class="node">
<title>q2</title>
<ellipse fill="none" stroke="#ff0000" cx="183.4913" cy="-44.5" rx="19.4965" ry="19.4965"/>
<text text-anchor="middle" x="183.4913" y="-40.8" font-family="Times,serif" font-size="14.00" fill="#000000">q2</text>
</g>
<!-- q1&#45;&gt;q2 -->
<g id="edge4" class="edge">
<title>q1&#45;&gt;q2</title>
<path fill="none" stroke="#ff0000" d="M121.3439,-44.5C131.0128,-44.5 142.8429,-44.5 153.5769,-44.5"/>
<polygon fill="#ff0000" stroke="#ff0000" points="153.8251,-48.0001 163.8251,-44.5 153.825,-41.0001 153.8251,-48.0001"/>
<text text-anchor="middle" x="142.4931" y="-48.3" font-family="Times,serif" font-size="14.00" fill="#000000">0</text>
</g>
<!-- q2&#45;&gt;q2 -->
<g id="edge5" class="edge">
<title>q2&#45;&gt;q2</title>
<path fill="none" stroke="#000000" d="M176.3008,-63.0218C175.0789,-72.9518 177.4757,-81.9983 183.4913,-81.9983 187.2511,-81.9983 189.5973,-78.4645 190.5299,-73.3898"/>
<polygon fill="#000000" stroke="#000000" points="194.0348,-73.0721 190.6819,-63.0218 187.0356,-72.9694 194.0348,-73.0721"/>
<text text-anchor="middle" x="183.4913" y="-85.7983" font-family="Times,serif" font-size="14.00" fill="#000000">1</text>
</g>
<!-- qf -->
<g id="node5" class="node">
<title>qf</title>
<ellipse fill="none" stroke="#000000" cx="268.188" cy="-44.5" rx="18.3625" ry="18.3625"/>
<ellipse fill="none" stroke="#000000" cx="268.188" cy="-44.5" rx="22.3986" ry="22.3986"/>
<text text-anchor="middle" x="268.188" y="-40.8" font-family="Times,serif" font-size="14.00" fill="#000000">qf</text>
</g>
<!-- q2&#45;&gt;qf -->
<g id="edge6" class="edge">
<title>q2&#45;&gt;qf</title>
<path fill="none" stroke="#000000" d="M203.1353,-44.5C212.8379,-44.5 224.7979,-44.5 235.8055,-44.5"/>
<polygon fill="#000000" stroke="#000000" points="235.9627,-48.0001 245.9626,-44.5 235.9626,-41.0001 235.9627,-48.0001"/>
<text text-anchor="middle" x="224.4896" y="-48.3" font-family="Times,serif" font-size="14.00" fill="#000000">0</text>
</g>
<!-- qf&#45;&gt;qf -->
<g id="edge7" class="edge">
<title>qf&#45;&gt;qf</title>
<path fill="none" stroke="#000000" d="M260.5053,-65.5949C259.5568,-75.7414 262.1177,-84.6984 268.188,-84.6984 272.0768,-84.6984 274.5253,-81.0224 275.5336,-75.7127"/>
<polygon fill="#000000" stroke="#000000" points="279.0357,-75.7059 275.8707,-65.5949 272.0396,-75.4727 279.0357,-75.7059"/>
<text text-anchor="middle" x="268.188" y="-88.4984" font-family="Times,serif" font-size="14.00" fill="#000000">0, 1</text>
</g>
</g>
</svg>
