<?xml version="1.0" encoding="UTF-8" standalone="no"?>
<!DOCTYPE svg PUBLIC "-//W3C//DTD SVG 1.1//EN"
 "http://www.w3.org/Graphics/SVG/1.1/DTD/svg11.dtd">
<!-- Generated by graphviz version 2.40.1 (20161225.0304)
 -->
<!-- Title: %3 Pages: 1 -->
<svg width="216pt" height="260pt"
 viewBox="0.00 0.00 216.39 260.00" xmlns="http://www.w3.org/2000/svg" xmlns:xlink="http://www.w3.org/1999/xlink">
<g id="graph0" class="graph" transform="scale(1 1) rotate(0) translate(4 255.9965)">
<title>%3</title>
<polygon fill="#ffffff" stroke="transparent" points="-4,4 -4,-255.9965 212.3899,-255.9965 212.3899,4 -4,4"/>
<g id="node1" class="node">
<title></title>
</g>
<!-- q0 -->
<g id="node2" class="node">
<title>q0</title>
<ellipse fill="none" stroke="#ff0000" cx="19.4983" cy="-109.4983" rx="19.4965" ry="19.4965"/>
<text text-anchor="middle" x="19.4983" y="-105.7983" font-family="Times,serif" font-size="14.00" fill="#000000">q0</text>
</g>
<!-- q0&#45;&gt;q0 -->
<g id="edge1" class="edge">
<title>q0&#45;&gt;q0</title>
<path fill="none" stroke="#000000" d="M12.3077,-128.0201C11.0858,-137.95 13.4826,-146.9965 19.4983,-146.9965 23.258,-146.9965 25.6042,-143.4627 26.5368,-138.3881"/>
<polygon fill="#000000" stroke="#000000" points="30.0418,-138.0703 26.6888,-128.0201 23.0425,-137.9676 30.0418,-138.0703"/>
<text text-anchor="middle" x="19.4983" y="-150.7965" font-family="Times,serif" font-size="14.00" fill="#000000">a, b, c</text>
</g>
<!-- q1 -->
<g id="node3" class="node">
<title>q1</title>
<ellipse fill="none" stroke="#000000" cx="101.4948" cy="-199.4983" rx="19.4965" ry="19.4965"/>
<text text-anchor="middle" x="101.4948" y="-195.7983" font-family="Times,serif" font-size="14.00" fill="#000000">q1</text>
</g>
<!-- q0&#45;&gt;q1 -->
<g id="edge2" class="edge">
<title>q0&#45;&gt;q1</title>
<path fill="none" stroke="#000000" d="M32.6724,-123.9583C45.8221,-138.3915 66.2023,-160.761 81.3768,-177.4166"/>
<polygon fill="#000000" stroke="#000000" points="79.0313,-180.0391 88.3533,-185.0741 84.2058,-175.3248 79.0313,-180.0391"/>
<text text-anchor="middle" x="60.4965" y="-160.2983" font-family="Times,serif" font-size="14.00" fill="#000000">a</text>
</g>
<!-- q2 -->
<g id="node4" class="node">
<title>q2</title>
<ellipse fill="none" stroke="#000000" cx="101.4948" cy="-109.4983" rx="19.4965" ry="19.4965"/>
<text text-anchor="middle" x="101.4948" y="-105.7983" font-family="Times,serif" font-size="14.00" fill="#000000">q2</text>
</g>
<!-- q0&#45;&gt;q2 -->
<g id="edge3" class="edge">
<title>q0&#45;&gt;q2</title>
<path fill="none" stroke="#000000" d="M39.3473,-109.4983C49.0163,-109.4983 60.8463,-109.4983 71.5804,-109.4983"/>
<polygon fill="#000000" stroke="#000000" points="71.8286,-112.9984 81.8285,-109.4983 71.8285,-105.9984 71.8286,-112.9984"/>
<text text-anchor="middle" x="60.4965" y="-113.2983" font-family="Times,serif" font-size="14.00" fill="#000000">b</text>
</g>
<!-- q3 -->
<g id="node5" class="node">
<title>q3</title>
<ellipse fill="none" stroke="#000000" cx="101.4948" cy="-19.4983" rx="19.4965" ry="19.4965"/>
<text text-anchor="middle" x="101.4948" y="-15.7983" font-family="Times,serif" font-size="14.00" fill="#000000">q3</text>
</g>
<!-- q0&#45;&gt;q3 -->
<g id="edge4" class="edge">
<title>q0&#45;&gt;q3</title>
<path fill="none" stroke="#000000" d="M32.6724,-95.0382C45.8221,-80.605 66.2023,-58.2355 81.3768,-41.58"/>
<polygon fill="#000000" stroke="#000000" points="84.2058,-43.6717 88.3533,-33.9224 79.0313,-38.9574 84.2058,-43.6717"/>
<text text-anchor="middle" x="60.4965" y="-70.2983" font-family="Times,serif" font-size="14.00" fill="#000000">c</text>
</g>
<!-- q1&#45;&gt;q1 -->
<g id="edge5" class="edge">
<title>q1&#45;&gt;q1</title>
<path fill="none" stroke="#000000" d="M94.3043,-218.0201C93.0823,-227.95 95.4792,-236.9965 101.4948,-236.9965 105.2546,-236.9965 107.6008,-233.4627 108.5334,-228.3881"/>
<polygon fill="#000000" stroke="#000000" points="112.0383,-228.0703 108.6854,-218.0201 105.039,-227.9676 112.0383,-228.0703"/>
<text text-anchor="middle" x="101.4948" y="-240.7965" font-family="Times,serif" font-size="14.00" fill="#000000">a, b, c</text>
</g>
<!-- qf -->
<g id="node6" class="node">
<title>qf</title>
<ellipse fill="none" stroke="#000000" cx="186.1915" cy="-109.4983" rx="18.3625" ry="18.3625"/>
<ellipse fill="none" stroke="#000000" cx="186.1915" cy="-109.4983" rx="22.3986" ry="22.3986"/>
<text text-anchor="middle" x="186.1915" y="-105.7983" font-family="Times,serif" font-size="14.00" fill="#000000">qf</text>
</g>
<!-- q1&#45;&gt;qf -->
<g id="edge6" class="edge">
<title>q1&#45;&gt;qf</title>
<path fill="none" stroke="#000000" d="M115.1028,-185.0382C128.2033,-171.1174 148.2515,-149.8139 163.7217,-133.3749"/>
<polygon fill="#000000" stroke="#000000" points="166.5936,-135.4304 170.898,-125.7494 161.4959,-130.6331 166.5936,-135.4304"/>
<text text-anchor="middle" x="142.4931" y="-160.2983" font-family="Times,serif" font-size="14.00" fill="#000000">a</text>
</g>
<!-- q2&#45;&gt;q2 -->
<g id="edge7" class="edge">
<title>q2&#45;&gt;q2</title>
<path fill="none" stroke="#000000" d="M94.3043,-128.0201C93.0823,-137.95 95.4792,-146.9965 101.4948,-146.9965 105.2546,-146.9965 107.6008,-143.4627 108.5334,-138.3881"/>
<polygon fill="#000000" stroke="#000000" points="112.0383,-138.0703 108.6854,-128.0201 105.039,-137.9676 112.0383,-138.0703"/>
<text text-anchor="middle" x="101.4948" y="-150.7965" font-family="Times,serif" font-size="14.00" fill="#000000">a, b, c</text>
</g>
<!-- q2&#45;&gt;qf -->
<g id="edge8" class="edge">
<title>q2&#45;&gt;qf</title>
<path fill="none" stroke="#000000" d="M121.1388,-109.4983C130.8413,-109.4983 142.8014,-109.4983 153.809,-109.4983"/>
<polygon fill="#000000" stroke="#000000" points="153.9661,-112.9984 163.9661,-109.4983 153.9661,-105.9984 153.9661,-112.9984"/>
<text text-anchor="middle" x="142.4931" y="-113.2983" font-family="Times,serif" font-size="14.00" fill="#000000">b</text>
</g>
<!-- q3&#45;&gt;q3 -->
<g id="edge9" class="edge">
<title>q3&#45;&gt;q3</title>
<path fill="none" stroke="#000000" d="M94.3043,-38.0201C93.0823,-47.95 95.4792,-56.9965 101.4948,-56.9965 105.2546,-56.9965 107.6008,-53.4627 108.5334,-48.3881"/>
<polygon fill="#000000" stroke="#000000" points="112.0383,-48.0703 108.6854,-38.0201 105.039,-47.9676 112.0383,-48.0703"/>
<text text-anchor="middle" x="101.4948" y="-60.7965" font-family="Times,serif" font-size="14.00" fill="#000000">a, b, c</text>
</g>
<!-- q3&#45;&gt;qf -->
<g id="edge10" class="edge">
<title>q3&#45;&gt;qf</title>
<path fill="none" stroke="#000000" d="M115.1028,-33.9583C128.2033,-47.8791 148.2515,-69.1826 163.7217,-85.6216"/>
<polygon fill="#000000" stroke="#000000" points="161.4959,-88.3634 170.898,-93.2472 166.5936,-83.5661 161.4959,-88.3634"/>
<text text-anchor="middle" x="142.4931" y="-68.2983" font-family="Times,serif" font-size="14.00" fill="#000000">c</text>
</g>
</g>
</svg>
