<?xml version="1.0" encoding="UTF-8" standalone="no"?>
<!DOCTYPE svg PUBLIC "-//W3C//DTD SVG 1.1//EN"
 "http://www.w3.org/Graphics/SVG/1.1/DTD/svg11.dtd">
<!-- Generated by graphviz version 2.40.1 (20161225.0304)
 -->
<!-- Title: %3 Pages: 1 -->
<svg width="328pt" height="105pt"
 viewBox="0.00 0.00 328.39 105.00" xmlns="http://www.w3.org/2000/svg" xmlns:xlink="http://www.w3.org/1999/xlink">
<g id="graph0" class="graph" transform="scale(1 1) rotate(0) translate(4 100.9983)">
<title>%3</title>
<polygon fill="#ffffff" stroke="transparent" points="-4,4 -4,-100.9983 324.3864,-100.9983 324.3864,4 -4,4"/>
<g id="node1" class="node">
<title></title>
</g>
<!-- q0 -->
<g id="node2" class="node">
<title>q0</title>
<ellipse fill="none" stroke="#ff0000" cx="19.4983" cy="-44.5" rx="19.4965" ry="19.4965"/>
<text text-anchor="middle" x="19.4983" y="-40.8" font-family="Times,serif" font-size="14.00" fill="#000000">q0</text>
</g>
<!-- q0&#45;&gt;q0 -->
<g id="edge1" class="edge">
<title>q0&#45;&gt;q0</title>
<path fill="none" stroke="#ff0000" d="M12.3077,-63.0218C11.0858,-72.9518 13.4826,-81.9983 19.4983,-81.9983 23.258,-81.9983 25.6042,-78.4645 26.5368,-73.3898"/>
<polygon fill="#ff0000" stroke="#ff0000" points="30.0418,-73.0721 26.6888,-63.0218 23.0425,-72.9694 30.0418,-73.0721"/>
<text text-anchor="middle" x="19.4983" y="-85.7983" font-family="Times,serif" font-size="14.00" fill="#000000">0, 1</text>
</g>
<!-- q1 -->
<g id="node3" class="node">
<title>q1</title>
<ellipse fill="none" stroke="#ff0000" cx="101.4948" cy="-44.5" rx="19.4965" ry="19.4965"/>
<text text-anchor="middle" x="101.4948" y="-40.8" font-family="Times,serif" font-size="14.00" fill="#000000">q1</text>
</g>
<!-- q0&#45;&gt;q1 -->
<g id="edge2" class="edge">
<title>q0&#45;&gt;q1</title>
<path fill="none" stroke="#ff0000" d="M39.3473,-44.5C49.0163,-44.5 60.8463,-44.5 71.5804,-44.5"/>
<polygon fill="#ff0000" stroke="#ff0000" points="71.8286,-48.0001 81.8285,-44.5 71.8285,-41.0001 71.8286,-48.0001"/>
<text text-anchor="middle" x="60.4965" y="-48.3" font-family="Times,serif" font-size="14.00" fill="#000000">1</text>
</g>
<!-- q2 -->
<g id="node4" class="node">
<title>q2</title>
<ellipse fill="none" stroke="#ff0000" cx="198.4913" cy="-44.5" rx="19.4965" ry="19.4965"/>
<text text-anchor="middle" x="198.4913" y="-40.8" font-family="Times,serif" font-size="14.00" fill="#000000">q2</text>
</g>
<!-- q1&#45;&gt;q2 -->
<g id="edge3" class="edge">
<title>q1&#45;&gt;q2</title>
<path fill="none" stroke="#ff0000" d="M121.1235,-44.5C134.7966,-44.5 153.2832,-44.5 168.7569,-44.5"/>
<polygon fill="#ff0000" stroke="#ff0000" points="168.8919,-48.0001 178.8918,-44.5 168.8918,-41.0001 168.8919,-48.0001"/>
<text text-anchor="middle" x="149.9931" y="-48.3" font-family="Times,serif" font-size="14.00" fill="#000000">0, 1</text>
</g>
<!-- qf -->
<g id="node5" class="node">
<title>qf</title>
<ellipse fill="none" stroke="#000000" cx="298.188" cy="-44.5" rx="18.3625" ry="18.3625"/>
<ellipse fill="none" stroke="#000000" cx="298.188" cy="-44.5" rx="22.3986" ry="22.3986"/>
<text text-anchor="middle" x="298.188" y="-40.8" font-family="Times,serif" font-size="14.00" fill="#000000">qf</text>
</g>
<!-- q2&#45;&gt;qf -->
<g id="edge4" class="edge">
<title>q2&#45;&gt;qf</title>
<path fill="none" stroke="#000000" d="M218.1882,-44.5C231.6515,-44.5 249.8152,-44.5 265.4322,-44.5"/>
<polygon fill="#000000" stroke="#000000" points="265.7482,-48.0001 275.7481,-44.5 265.7481,-41.0001 265.7482,-48.0001"/>
<text text-anchor="middle" x="246.9896" y="-48.3" font-family="Times,serif" font-size="14.00" fill="#000000">0, 1</text>
</g>
</g>
</svg>
