<?xml version="1.0" encoding="UTF-8" standalone="no"?>
<!DOCTYPE svg PUBLIC "-//W3C//DTD SVG 1.1//EN"
 "http://www.w3.org/Graphics/SVG/1.1/DTD/svg11.dtd">
<!-- Generated by graphviz version 2.40.1 (20161225.0304)
 -->
<!-- Title: %3 Pages: 1 -->
<svg width="345pt" height="94pt"
 viewBox="0.00 0.00 344.99 94.00" xmlns="http://www.w3.org/2000/svg" xmlns:xlink="http://www.w3.org/1999/xlink">
<g id="graph0" class="graph" transform="scale(1 1) rotate(0) translate(4 89.9965)">
<title>%3</title>
<polygon fill="#ffffff" stroke="transparent" points="-4,4 -4,-89.9965 340.9862,-89.9965 340.9862,4 -4,4"/>
<g id="node1" class="node">
<title></title>
</g>
<!-- q0 -->
<g id="node2" class="node">
<title>q0</title>
<ellipse fill="none" stroke="#000000" cx="67.4983" cy="-23.4983" rx="19.4968" ry="19.4968"/>
<ellipse fill="none" stroke="#000000" cx="67.4983" cy="-23.4983" rx="23.4965" ry="23.4965"/>
<text text-anchor="middle" x="67.4983" y="-19.7983" font-family="Times,serif" font-size="14.00" fill="#000000">q0</text>
</g>
<!-- &#45;&gt;q0 -->
<g id="edge1" class="edge">
<title>&#45;&gt;q0</title>
<path fill="none" stroke="#000000" d="M7.3117,-23.4983C13.5278,-23.4983 26.3862,-23.4983 38.6279,-23.4983"/>
<polygon fill="#000000" stroke="#000000" points="38.8155,-25.2484 43.8154,-23.4983 38.8154,-21.7484 38.8155,-25.2484"/>
</g>
<!-- q1 -->
<g id="node3" class="node">
<title>q1</title>
<ellipse fill="none" stroke="#000000" cx="153.4948" cy="-66.4983" rx="19.4965" ry="19.4965"/>
<text text-anchor="middle" x="153.4948" y="-62.7983" font-family="Times,serif" font-size="14.00" fill="#000000">q1</text>
</g>
<!-- q0&#45;&gt;q1 -->
<g id="edge2" class="edge">
<title>q0&#45;&gt;q1</title>
<path fill="none" stroke="#000000" d="M84.4795,-39.8714C91.5683,-45.9038 100.1957,-52.2856 108.9965,-56.4983 113.5764,-58.6905 118.6538,-60.4119 123.6923,-61.7608"/>
<polygon fill="#000000" stroke="#000000" points="123.283,-65.2562 133.8076,-64.038 124.8205,-58.4271 123.283,-65.2562"/>
<text text-anchor="middle" x="112.4965" y="-62.2983" font-family="Times,serif" font-size="14.00" fill="#000000">1</text>
</g>
<!-- q2 -->
<g id="node4" class="node">
<title>q2</title>
<ellipse fill="none" stroke="#ff0000" cx="317.4879" cy="-23.4983" rx="19.4965" ry="19.4965"/>
<text text-anchor="middle" x="317.4879" y="-19.7983" font-family="Times,serif" font-size="14.00" fill="#000000">q2</text>
</g>
<!-- q0&#45;&gt;q2 -->
<g id="edge3" class="edge">
<title>q0&#45;&gt;q2</title>
<path fill="none" stroke="#ff0000" d="M91.0167,-23.4983C136.6512,-23.4983 237.139,-23.4983 287.4927,-23.4983"/>
<polygon fill="#ff0000" stroke="#ff0000" points="287.7256,-26.9984 297.7256,-23.4983 287.7256,-19.9984 287.7256,-26.9984"/>
<text text-anchor="middle" x="194.4931" y="-27.2983" font-family="Times,serif" font-size="14.00" fill="#000000">0</text>
</g>
<!-- q1&#45;&gt;q0 -->
<g id="edge4" class="edge">
<title>q1&#45;&gt;q0</title>
<path fill="none" stroke="#000000" d="M139.0505,-53.2535C132.4207,-47.7422 124.2159,-41.6699 115.9965,-37.4983 111.2344,-35.0813 105.9915,-33.0218 100.7664,-31.2864"/>
<polygon fill="#000000" stroke="#000000" points="101.4545,-27.8395 90.8715,-28.34 99.4568,-34.5484 101.4545,-27.8395"/>
<text text-anchor="middle" x="112.4965" y="-41.2983" font-family="Times,serif" font-size="14.00" fill="#000000">1</text>
</g>
<!-- q3 -->
<g id="node5" class="node">
<title>q3</title>
<ellipse fill="none" stroke="#000000" cx="235.4913" cy="-66.4983" rx="19.4965" ry="19.4965"/>
<text text-anchor="middle" x="235.4913" y="-62.7983" font-family="Times,serif" font-size="14.00" fill="#000000">q3</text>
</g>
<!-- q1&#45;&gt;q3 -->
<g id="edge5" class="edge">
<title>q1&#45;&gt;q3</title>
<path fill="none" stroke="#000000" d="M173.3439,-66.4983C183.0128,-66.4983 194.8429,-66.4983 205.5769,-66.4983"/>
<polygon fill="#000000" stroke="#000000" points="205.8251,-69.9984 215.8251,-66.4983 205.825,-62.9984 205.8251,-69.9984"/>
<text text-anchor="middle" x="194.4931" y="-70.2983" font-family="Times,serif" font-size="14.00" fill="#000000">0</text>
</g>
<!-- q2&#45;&gt;q0 -->
<g id="edge7" class="edge">
<title>q2&#45;&gt;q0</title>
<path fill="none" stroke="#000000" d="M298.1447,-19.4585C274.6063,-14.7666 233.5927,-7.3108 197.9931,-4.4983 164.5465,-1.8558 126.63,-8.465 100.3215,-14.5995"/>
<polygon fill="#000000" stroke="#000000" points="99.3826,-11.2258 90.496,-16.9946 101.0404,-18.0267 99.3826,-11.2258"/>
<text text-anchor="middle" x="194.4931" y="-8.2983" font-family="Times,serif" font-size="14.00" fill="#000000">0</text>
</g>
<!-- q2&#45;&gt;q3 -->
<g id="edge6" class="edge">
<title>q2&#45;&gt;q3</title>
<path fill="none" stroke="#000000" d="M298.9216,-30.0371C290.7902,-33.1465 281.2415,-37.1369 272.9896,-41.4983 268.6359,-43.7993 264.1564,-46.48 259.8762,-49.2146"/>
<polygon fill="#000000" stroke="#000000" points="257.8651,-46.3486 251.4743,-54.799 261.7399,-52.1784 257.8651,-46.3486"/>
<text text-anchor="middle" x="276.4896" y="-45.2983" font-family="Times,serif" font-size="14.00" fill="#000000">1</text>
</g>
<!-- q3&#45;&gt;q1 -->
<g id="edge9" class="edge">
<title>q3&#45;&gt;q1</title>
<path fill="none" stroke="#000000" d="M218.9685,-56.0213C212.6571,-52.5955 205.2334,-49.2279 197.9931,-47.4983 191.4518,-45.9356 184.6496,-47.2088 178.3896,-49.6968"/>
<polygon fill="#000000" stroke="#000000" points="176.4676,-46.7461 169.1141,-54.3736 179.6191,-52.9966 176.4676,-46.7461"/>
<text text-anchor="middle" x="194.4931" y="-51.2983" font-family="Times,serif" font-size="14.00" fill="#000000">0</text>
</g>
<!-- q3&#45;&gt;q2 -->
<g id="edge8" class="edge">
<title>q3&#45;&gt;q2</title>
<path fill="none" stroke="#000000" d="M255.2733,-64.2296C263.2605,-62.7681 272.3707,-60.3815 279.9896,-56.4983 285.8713,-53.5004 291.5708,-49.3675 296.6763,-45.0396"/>
<polygon fill="#000000" stroke="#000000" points="299.1273,-47.5412 304.1513,-38.2132 294.4069,-42.3722 299.1273,-47.5412"/>
<text text-anchor="middle" x="276.4896" y="-62.2983" font-family="Times,serif" font-size="14.00" fill="#000000">1</text>
</g>
</g>
</svg>
