<?xml version="1.0" encoding="UTF-8" standalone="no"?>
<!DOCTYPE svg PUBLIC "-//W3C//DTD SVG 1.1//EN"
 "http://www.w3.org/Graphics/SVG/1.1/DTD/svg11.dtd">
<!-- Generated by graphviz version 2.40.1 (20161225.0304)
 -->
<!-- Title: %3 Pages: 1 -->
<svg width="345pt" height="94pt"
 viewBox="0.00 0.00 344.99 94.00" xmlns="http://www.w3.org/2000/svg" xmlns:xlink="http://www.w3.org/1999/xlink">
<g id="graph0" class="graph" transform="scale(1 1) rotate(0) translate(4 89.9965)">
<title>%3</title>
<polygon fill="#ffffff" stroke="transparent" points="-4,4 -4,-89.9965 340.9862,-89.9965 340.9862,4 -4,4"/>
<g id="node1" class="node">
<title></title>
</g>
<!-- q0 -->
<g id="node2" class="node">
<title>q0</title>
<ellipse fill="none" stroke="#000000" cx="67.4983" cy="-23.4983" rx="19.4968" ry="19.4968"/>
<ellipse fill="none" stroke="#000000" cx="67.4983" cy="-23.4983" rx="23.4965" ry="23.4965"/>
<text text-anchor="middle" x="67.4983" y="-19.7983" font-family="Times,serif" font-size="14.00" fill="#000000">q0</text>
</g>
<!-- &#45;&gt;q0 -->
<g id="edge1" class="edge">
<title>&#45;&gt;q0</title>
<path fill="none" stroke="#000000" d="M7.3117,-23.4983C13.5278,-23.4983 26.3862,-23.4983 38.6279,-23.4983"/>
<polygon fill="#000000" stroke="#000000" points="38.8155,-25.2484 43.8154,-23.4983 38.8154,-21.7484 38.8155,-25.2484"/>
</g>
<!-- q1 -->
<g id="node3" class="node">
<title>q1</title>
<ellipse fill="none" stroke="#000000" cx="153.4948" cy="-66.4983" rx="19.4965" ry="19.4965"/>
<text text-anchor="middle" x="153.4948" y="-62.7983" font-family="Times,serif" font-size="14.00" fill="#000000">q1</text>
</g>
<!-- q0&#45;&gt;q1 -->
<g id="edge2" class="edge">
<title>q0&#45;&gt;q1</title>
<path fill="none" stroke="#000000" d="M84.4795,-39.8714C91.5683,-45.9038 100.1957,-52.2856 108.9965,-56.4983 115.7458,-59.7289 123.5757,-61.9371 130.7688,-63.4374"/>
<polygon fill="#000000" stroke="#000000" points="130.6609,-64.4863 133.8076,-64.038 131.0681,-62.4262 130.6609,-64.4863"/>
<text text-anchor="middle" x="112.4965" y="-62.2983" font-family="Times,serif" font-size="14.00" fill="#000000">1</text>
</g>
<!-- q2 -->
<g id="node4" class="node">
<title>q2</title>
<ellipse fill="none" stroke="#000000" cx="317.4879" cy="-23.4983" rx="19.4965" ry="19.4965"/>
<text text-anchor="middle" x="317.4879" y="-19.7983" font-family="Times,serif" font-size="14.00" fill="#000000">q2</text>
</g>
<!-- q0&#45;&gt;q2 -->
<g id="edge3" class="edge">
<title>q0&#45;&gt;q2</title>
<path fill="none" stroke="#000000" d="M91.0167,-23.4983C138.9473,-23.4983 247.3898,-23.4983 294.6991,-23.4983"/>
<polygon fill="#000000" stroke="#000000" points="294.7256,-24.5484 297.7256,-23.4983 294.7256,-22.4484 294.7256,-24.5484"/>
<text text-anchor="middle" x="194.4931" y="-27.2983" font-family="Times,serif" font-size="14.00" fill="#000000">0</text>
</g>
<!-- q1&#45;&gt;q0 -->
<g id="edge4" class="edge">
<title>q1&#45;&gt;q0</title>
<path fill="none" stroke="#000000" d="M139.0505,-53.2535C132.4207,-47.7422 124.2159,-41.6699 115.9965,-37.4983 109.1587,-34.0278 101.3293,-31.2941 93.9851,-29.1991"/>
<polygon fill="#000000" stroke="#000000" points="94.0428,-28.1258 90.8715,-28.34 93.4842,-30.1502 94.0428,-28.1258"/>
<text text-anchor="middle" x="112.4965" y="-41.2983" font-family="Times,serif" font-size="14.00" fill="#000000">1</text>
</g>
<!-- q3 -->
<g id="node5" class="node">
<title>q3</title>
<ellipse fill="none" stroke="#000000" cx="235.4913" cy="-66.4983" rx="19.4965" ry="19.4965"/>
<text text-anchor="middle" x="235.4913" y="-62.7983" font-family="Times,serif" font-size="14.00" fill="#000000">q3</text>
</g>
<!-- q1&#45;&gt;q3 -->
<g id="edge5" class="edge">
<title>q1&#45;&gt;q3</title>
<path fill="none" stroke="#000000" d="M173.3439,-66.4983C185.2286,-66.4983 200.3785,-66.4983 212.7448,-66.4983"/>
<polygon fill="#000000" stroke="#000000" points="212.8251,-67.5484 215.8251,-66.4983 212.825,-65.4484 212.8251,-67.5484"/>
<text text-anchor="middle" x="194.4931" y="-70.2983" font-family="Times,serif" font-size="14.00" fill="#000000">0</text>
</g>
<!-- q2&#45;&gt;q0 -->
<g id="edge7" class="edge">
<title>q2&#45;&gt;q0</title>
<path fill="none" stroke="#000000" d="M298.1447,-19.4585C274.6063,-14.7666 233.5927,-7.3108 197.9931,-4.4983 161.5867,-1.622 119.8841,-9.7072 93.6209,-16.2102"/>
<polygon fill="#000000" stroke="#000000" points="93.15,-15.2458 90.496,-16.9946 93.6614,-17.2826 93.15,-15.2458"/>
<text text-anchor="middle" x="194.4931" y="-8.2983" font-family="Times,serif" font-size="14.00" fill="#000000">0</text>
</g>
<!-- q2&#45;&gt;q3 -->
<g id="edge6" class="edge">
<title>q2&#45;&gt;q3</title>
<path fill="none" stroke="#000000" d="M298.9216,-30.0371C290.7902,-33.1465 281.2415,-37.1369 272.9896,-41.4983 266.5736,-44.8893 259.8845,-49.1048 253.9624,-53.1022"/>
<polygon fill="#000000" stroke="#000000" points="253.3612,-52.2412 251.4743,-54.799 254.5444,-53.9761 253.3612,-52.2412"/>
<text text-anchor="middle" x="276.4896" y="-45.2983" font-family="Times,serif" font-size="14.00" fill="#000000">1</text>
</g>
<!-- q3&#45;&gt;q1 -->
<g id="edge9" class="edge">
<title>q3&#45;&gt;q1</title>
<path fill="none" stroke="#000000" d="M218.9685,-56.0213C212.6571,-52.5955 205.2334,-49.2279 197.9931,-47.4983 189.1156,-45.3775 179.7577,-48.4799 171.9265,-52.7536"/>
<polygon fill="#000000" stroke="#000000" points="171.1896,-51.9663 169.1141,-54.3736 172.2378,-53.786 171.1896,-51.9663"/>
<text text-anchor="middle" x="194.4931" y="-51.2983" font-family="Times,serif" font-size="14.00" fill="#000000">0</text>
</g>
<!-- q3&#45;&gt;q2 -->
<g id="edge8" class="edge">
<title>q3&#45;&gt;q2</title>
<path fill="none" stroke="#000000" d="M255.2733,-64.2296C263.2605,-62.7681 272.3707,-60.3815 279.9896,-56.4983 287.9719,-52.4298 295.6186,-46.2706 301.9005,-40.3707"/>
<polygon fill="#000000" stroke="#000000" points="302.7122,-41.0472 304.1513,-38.2132 301.259,-39.5312 302.7122,-41.0472"/>
<text text-anchor="middle" x="276.4896" y="-62.2983" font-family="Times,serif" font-size="14.00" fill="#000000">1</text>
</g>
</g>
</svg>
