<?xml version="1.0" encoding="UTF-8" standalone="no"?>
<!DOCTYPE svg PUBLIC "-//W3C//DTD SVG 1.1//EN"
 "http://www.w3.org/Graphics/SVG/1.1/DTD/svg11.dtd">
<!-- Generated by graphviz version 2.40.1 (20161225.0304)
 -->
<!-- Title: %3 Pages: 1 -->
<svg width="342pt" height="116pt"
 viewBox="0.00 0.00 342.39 115.70" xmlns="http://www.w3.org/2000/svg" xmlns:xlink="http://www.w3.org/1999/xlink">
<g id="graph0" class="graph" transform="scale(1 1) rotate(0) translate(4 111.6967)">
<title>%3</title>
<polygon fill="#ffffff" stroke="transparent" points="-4,4 -4,-111.6967 338.3864,-111.6967 338.3864,4 -4,4"/>
<g id="node1" class="node">
<title></title>
</g>
<!-- q0 -->
<g id="node2" class="node">
<title>q0</title>
<ellipse fill="none" stroke="#000000" cx="63.4983" cy="-22.1984" rx="19.4965" ry="19.4965"/>
<text text-anchor="middle" x="63.4983" y="-18.4984" font-family="Times,serif" font-size="14.00" fill="#000000">q0</text>
</g>
<!-- &#45;&gt;q0 -->
<g id="edge1" class="edge">
<title>&#45;&gt;q0</title>
<path fill="none" stroke="#000000" d="M7.0735,-22.1984C13.2984,-22.1984 26.6285,-22.1984 38.7696,-22.1984"/>
<polygon fill="#000000" stroke="#000000" points="38.876,-23.9485 43.8759,-22.1984 38.8759,-20.4485 38.876,-23.9485"/>
</g>
<!-- q0&#45;&gt;q0 -->
<g id="edge2" class="edge">
<title>q0&#45;&gt;q0</title>
<path fill="none" stroke="#000000" d="M60.223,-41.492C59.7698,-51.114 60.8616,-59.6967 63.4983,-59.6967 65.8466,-59.6967 66.9694,-52.8888 66.8668,-44.602"/>
<polygon fill="#000000" stroke="#000000" points="67.9131,-44.4592 66.7736,-41.492 65.814,-44.5222 67.9131,-44.4592"/>
<text text-anchor="middle" x="63.4983" y="-63.4967" font-family="Times,serif" font-size="14.00" fill="#000000">0</text>
</g>
<!-- q0&#45;&gt;q0 -->
<g id="edge3" class="edge">
<title>q0&#45;&gt;q0</title>
<path fill="none" stroke="#000000" d="M58.0403,-40.9626C55.2102,-58.583 57.0295,-77.6967 63.4983,-77.6967 69.5627,-77.6967 71.5408,-60.8975 69.4324,-44.2789"/>
<polygon fill="#000000" stroke="#000000" points="70.4221,-43.7829 68.9563,-40.9626 68.3434,-44.0814 70.4221,-43.7829"/>
<text text-anchor="middle" x="63.4983" y="-81.4967" font-family="Times,serif" font-size="14.00" fill="#000000">1</text>
</g>
<!-- q1 -->
<g id="node3" class="node">
<title>q1</title>
<ellipse fill="none" stroke="#000000" cx="145.4948" cy="-22.1984" rx="19.4965" ry="19.4965"/>
<text text-anchor="middle" x="145.4948" y="-18.4984" font-family="Times,serif" font-size="14.00" fill="#000000">q1</text>
</g>
<!-- q0&#45;&gt;q1 -->
<g id="edge4" class="edge">
<title>q0&#45;&gt;q1</title>
<path fill="none" stroke="#000000" d="M83.3473,-22.1984C95.2321,-22.1984 110.3819,-22.1984 122.7482,-22.1984"/>
<polygon fill="#000000" stroke="#000000" points="122.8286,-23.2485 125.8285,-22.1984 122.8285,-21.1485 122.8286,-23.2485"/>
<text text-anchor="middle" x="104.4965" y="-25.9984" font-family="Times,serif" font-size="14.00" fill="#000000">1</text>
</g>
<!-- q2 -->
<g id="node4" class="node">
<title>q2</title>
<ellipse fill="none" stroke="#000000" cx="227.4913" cy="-22.1984" rx="19.4965" ry="19.4965"/>
<text text-anchor="middle" x="227.4913" y="-18.4984" font-family="Times,serif" font-size="14.00" fill="#000000">q2</text>
</g>
<!-- q1&#45;&gt;q2 -->
<g id="edge5" class="edge">
<title>q1&#45;&gt;q2</title>
<path fill="none" stroke="#000000" d="M165.3439,-22.1984C177.2286,-22.1984 192.3785,-22.1984 204.7448,-22.1984"/>
<polygon fill="#000000" stroke="#000000" points="204.8251,-23.2485 207.8251,-22.1984 204.825,-21.1485 204.8251,-23.2485"/>
<text text-anchor="middle" x="186.4931" y="-25.9984" font-family="Times,serif" font-size="14.00" fill="#000000">0</text>
</g>
<!-- q1&#45;&gt;q2 -->
<g id="edge6" class="edge">
<title>q1&#45;&gt;q2</title>
<path fill="none" stroke="#000000" d="M162.0176,-11.7214C168.3291,-8.2956 175.7527,-4.928 182.9931,-3.1984 191.8706,-1.0777 201.2284,-4.18 209.0596,-8.4537"/>
<polygon fill="#000000" stroke="#000000" points="208.7483,-9.4861 211.872,-10.0737 209.7966,-7.6664 208.7483,-9.4861"/>
<text text-anchor="middle" x="186.4931" y="-6.9984" font-family="Times,serif" font-size="14.00" fill="#000000">1</text>
</g>
<!-- qf -->
<g id="node5" class="node">
<title>qf</title>
<ellipse fill="none" stroke="#000000" cx="312.188" cy="-22.1984" rx="18.3625" ry="18.3625"/>
<ellipse fill="none" stroke="#000000" cx="312.188" cy="-22.1984" rx="22.3986" ry="22.3986"/>
<text text-anchor="middle" x="312.188" y="-18.4984" font-family="Times,serif" font-size="14.00" fill="#000000">qf</text>
</g>
<!-- q2&#45;&gt;qf -->
<g id="edge7" class="edge">
<title>q2&#45;&gt;qf</title>
<path fill="none" stroke="#000000" d="M247.1353,-22.1984C258.9384,-22.1984 274.0823,-22.1984 286.7883,-22.1984"/>
<polygon fill="#000000" stroke="#000000" points="286.9627,-23.2485 289.9626,-22.1984 286.9626,-21.1485 286.9627,-23.2485"/>
<text text-anchor="middle" x="268.4896" y="-25.9984" font-family="Times,serif" font-size="14.00" fill="#000000">0</text>
</g>
<!-- q2&#45;&gt;qf -->
<g id="edge8" class="edge">
<title>q2&#45;&gt;qf</title>
<path fill="none" stroke="#000000" d="M244.0142,-11.7214C250.3256,-8.2956 257.7493,-4.928 264.9896,-3.1984 273.7126,-1.1146 282.9406,-3.6723 290.9008,-7.5176"/>
<polygon fill="#000000" stroke="#000000" points="290.6238,-8.5553 293.7729,-8.9864 291.58,-6.6855 290.6238,-8.5553"/>
<text text-anchor="middle" x="268.4896" y="-6.9984" font-family="Times,serif" font-size="14.00" fill="#000000">1</text>
</g>
</g>
</svg>
