<?xml version="1.0" encoding="UTF-8" standalone="no"?>
<!DOCTYPE svg PUBLIC "-//W3C//DTD SVG 1.1//EN"
 "http://www.w3.org/Graphics/SVG/1.1/DTD/svg11.dtd">
<!-- Generated by graphviz version 2.40.1 (20161225.0304)
 -->
<!-- Title: %3 Pages: 1 -->
<svg width="342pt" height="152pt"
 viewBox="0.00 0.00 342.39 151.70" xmlns="http://www.w3.org/2000/svg" xmlns:xlink="http://www.w3.org/1999/xlink">
<g id="graph0" class="graph" transform="scale(1 1) rotate(0) translate(4 147.6967)">
<title>%3</title>
<polygon fill="#ffffff" stroke="transparent" points="-4,4 -4,-147.6967 338.3864,-147.6967 338.3864,4 -4,4"/>
<g id="node1" class="node">
<title></title>
</g>
<!-- q0 -->
<g id="node2" class="node">
<title>q0</title>
<ellipse fill="none" stroke="#000000" cx="63.4983" cy="-58.1984" rx="19.4965" ry="19.4965"/>
<text text-anchor="middle" x="63.4983" y="-54.4984" font-family="Times,serif" font-size="14.00" fill="#000000">q0</text>
</g>
<!-- &#45;&gt;q0 -->
<g id="edge1" class="edge">
<title>&#45;&gt;q0</title>
<path fill="none" stroke="#000000" d="M7.0735,-58.1984C13.2984,-58.1984 26.6285,-58.1984 38.7696,-58.1984"/>
<polygon fill="#000000" stroke="#000000" points="38.876,-59.9485 43.8759,-58.1984 38.8759,-56.4485 38.876,-59.9485"/>
</g>
<!-- q0&#45;&gt;q0 -->
<g id="edge3" class="edge">
<title>q0&#45;&gt;q0</title>
<path fill="none" stroke="#000000" d="M60.223,-77.492C59.7698,-87.114 60.8616,-95.6967 63.4983,-95.6967 65.8466,-95.6967 66.9694,-88.8888 66.8668,-80.602"/>
<polygon fill="#000000" stroke="#000000" points="67.9131,-80.4592 66.7736,-77.492 65.814,-80.5222 67.9131,-80.4592"/>
<text text-anchor="middle" x="63.4983" y="-99.4967" font-family="Times,serif" font-size="14.00" fill="#000000">b</text>
</g>
<!-- q0&#45;&gt;q0 -->
<g id="edge4" class="edge">
<title>q0&#45;&gt;q0</title>
<path fill="none" stroke="#000000" d="M58.0403,-76.9626C55.2102,-94.583 57.0295,-113.6967 63.4983,-113.6967 69.5627,-113.6967 71.5408,-96.8975 69.4324,-80.2789"/>
<polygon fill="#000000" stroke="#000000" points="70.4221,-79.7829 68.9563,-76.9626 68.3434,-80.0814 70.4221,-79.7829"/>
<text text-anchor="middle" x="63.4983" y="-117.4967" font-family="Times,serif" font-size="14.00" fill="#000000">c</text>
</g>
<!-- q1 -->
<g id="node3" class="node">
<title>q1</title>
<ellipse fill="none" stroke="#000000" cx="145.4948" cy="-67.1984" rx="19.4965" ry="19.4965"/>
<text text-anchor="middle" x="145.4948" y="-63.4984" font-family="Times,serif" font-size="14.00" fill="#000000">q1</text>
</g>
<!-- q0&#45;&gt;q1 -->
<g id="edge2" class="edge">
<title>q0&#45;&gt;q1</title>
<path fill="none" stroke="#000000" d="M75.5853,-74.0189C82.1939,-81.3442 91.0547,-89.2795 100.9965,-93.1984 111.1051,-97.183 121.6365,-91.5367 129.9149,-84.5"/>
<polygon fill="#000000" stroke="#000000" points="130.8657,-85.0595 132.4087,-82.2807 129.4696,-83.4907 130.8657,-85.0595"/>
<text text-anchor="middle" x="104.4965" y="-97.9984" font-family="Times,serif" font-size="14.00" fill="#000000">a</text>
</g>
<!-- q1&#45;&gt;q0 -->
<g id="edge6" class="edge">
<title>q1&#45;&gt;q0</title>
<path fill="none" stroke="#000000" d="M125.9181,-65.0496C113.9282,-63.7336 98.5392,-62.0445 86.0416,-60.6728"/>
<polygon fill="#000000" stroke="#000000" points="86.027,-59.6149 82.9303,-60.3313 85.7978,-61.7024 86.027,-59.6149"/>
<text text-anchor="middle" x="104.4965" y="-65.9984" font-family="Times,serif" font-size="14.00" fill="#000000">b</text>
</g>
<!-- q1&#45;&gt;q0 -->
<g id="edge7" class="edge">
<title>q1&#45;&gt;q0</title>
<path fill="none" stroke="#000000" d="M130.4204,-54.7594C123.934,-50.1805 116.0083,-45.5427 107.9965,-43.1984 99.7736,-40.7922 90.8028,-42.8896 83.084,-46.1983"/>
<polygon fill="#000000" stroke="#000000" points="82.5955,-45.267 80.3006,-47.4661 83.466,-47.1781 82.5955,-45.267"/>
<text text-anchor="middle" x="104.4965" y="-46.9984" font-family="Times,serif" font-size="14.00" fill="#000000">c</text>
</g>
<!-- q2 -->
<g id="node4" class="node">
<title>q2</title>
<ellipse fill="none" stroke="#000000" cx="227.4913" cy="-22.1984" rx="19.4965" ry="19.4965"/>
<text text-anchor="middle" x="227.4913" y="-18.4984" font-family="Times,serif" font-size="14.00" fill="#000000">q2</text>
</g>
<!-- q1&#45;&gt;q2 -->
<g id="edge5" class="edge">
<title>q1&#45;&gt;q2</title>
<path fill="none" stroke="#000000" d="M162.8842,-57.655C175.9296,-50.4957 193.8127,-40.6814 207.4573,-33.1931"/>
<polygon fill="#000000" stroke="#000000" points="208.0023,-34.0919 210.1271,-31.728 206.9919,-32.2509 208.0023,-34.0919"/>
<text text-anchor="middle" x="186.4931" y="-48.9984" font-family="Times,serif" font-size="14.00" fill="#000000">a</text>
</g>
<!-- q2&#45;&gt;q0 -->
<g id="edge10" class="edge">
<title>q2&#45;&gt;q0</title>
<path fill="none" stroke="#000000" d="M208.0607,-19.9888C187.3689,-18.2316 153.8334,-17.102 125.9965,-24.1984 110.084,-28.2549 93.8435,-37.2677 81.9073,-44.995"/>
<polygon fill="#000000" stroke="#000000" points="81.2063,-44.1991 79.2749,-46.7234 82.3589,-45.9545 81.2063,-44.1991"/>
<text text-anchor="middle" x="145.4948" y="-27.9984" font-family="Times,serif" font-size="14.00" fill="#000000">c</text>
</g>
<!-- q2&#45;&gt;q2 -->
<g id="edge8" class="edge">
<title>q2&#45;&gt;q2</title>
<path fill="none" stroke="#000000" d="M220.3008,-40.7202C219.0789,-50.6501 221.4757,-59.6967 227.4913,-59.6967 232.849,-59.6967 235.3362,-52.5208 234.953,-43.9361"/>
<polygon fill="#000000" stroke="#000000" points="235.9803,-43.6213 234.6819,-40.7202 233.8877,-43.7978 235.9803,-43.6213"/>
<text text-anchor="middle" x="227.4913" y="-63.4967" font-family="Times,serif" font-size="14.00" fill="#000000">a</text>
</g>
<!-- qf -->
<g id="node5" class="node">
<title>qf</title>
<ellipse fill="none" stroke="#000000" cx="312.188" cy="-22.1984" rx="18.3625" ry="18.3625"/>
<ellipse fill="none" stroke="#000000" cx="312.188" cy="-22.1984" rx="22.3986" ry="22.3986"/>
<text text-anchor="middle" x="312.188" y="-18.4984" font-family="Times,serif" font-size="14.00" fill="#000000">qf</text>
</g>
<!-- q2&#45;&gt;qf -->
<g id="edge9" class="edge">
<title>q2&#45;&gt;qf</title>
<path fill="none" stroke="#000000" d="M247.1353,-22.1984C258.9384,-22.1984 274.0823,-22.1984 286.7883,-22.1984"/>
<polygon fill="#000000" stroke="#000000" points="286.9627,-23.2485 289.9626,-22.1984 286.9626,-21.1485 286.9627,-23.2485"/>
<text text-anchor="middle" x="268.4896" y="-25.9984" font-family="Times,serif" font-size="14.00" fill="#000000">b</text>
</g>
<!-- qf&#45;&gt;qf -->
<g id="edge11" class="edge">
<title>qf&#45;&gt;qf</title>
<path fill="none" stroke="#000000" d="M309.5944,-44.5209C309.3821,-54.1513 310.2466,-62.3968 312.188,-62.3968 313.9171,-62.3968 314.7919,-55.8564 314.8126,-47.6222"/>
<polygon fill="#000000" stroke="#000000" points="315.8617,-47.5102 314.7816,-44.5209 313.7618,-47.5313 315.8617,-47.5102"/>
<text text-anchor="middle" x="312.188" y="-66.1968" font-family="Times,serif" font-size="14.00" fill="#000000">a</text>
</g>
<!-- qf&#45;&gt;qf -->
<g id="edge12" class="edge">
<title>qf&#45;&gt;qf</title>
<path fill="none" stroke="#000000" d="M307.7074,-43.99C305.8546,-61.8492 307.3482,-80.3968 312.188,-80.3968 316.7254,-80.3968 318.3216,-64.0952 316.9768,-47.342"/>
<polygon fill="#000000" stroke="#000000" points="317.989,-46.8812 316.6686,-43.99 315.8978,-47.0735 317.989,-46.8812"/>
<text text-anchor="middle" x="312.188" y="-84.1968" font-family="Times,serif" font-size="14.00" fill="#000000">b</text>
</g>
<!-- qf&#45;&gt;qf -->
<g id="edge13" class="edge">
<title>qf&#45;&gt;qf</title>
<path fill="none" stroke="#000000" d="M306.4707,-43.6505C302.2842,-68.9225 304.19,-98.3968 312.188,-98.3968 319.8736,-98.3968 321.9337,-71.1802 318.3681,-46.6293"/>
<polygon fill="#000000" stroke="#000000" points="319.4035,-46.4538 317.9054,-43.6505 317.3284,-46.7762 319.4035,-46.4538"/>
<text text-anchor="middle" x="312.188" y="-102.1968" font-family="Times,serif" font-size="14.00" fill="#000000">c</text>
</g>
</g>
</svg>
