<?xml version="1.0" encoding="UTF-8" standalone="no"?>
<!DOCTYPE svg PUBLIC "-//W3C//DTD SVG 1.1//EN"
 "http://www.w3.org/Graphics/SVG/1.1/DTD/svg11.dtd">
<!-- Generated by graphviz version 2.40.1 (20161225.0304)
 -->
<!-- Title: %3 Pages: 1 -->
<svg width="260pt" height="458pt"
 viewBox="0.00 0.00 260.39 458.00" xmlns="http://www.w3.org/2000/svg" xmlns:xlink="http://www.w3.org/1999/xlink">
<g id="graph0" class="graph" transform="scale(1 1) rotate(0) translate(4 453.9965)">
<title>%3</title>
<polygon fill="#ffffff" stroke="transparent" points="-4,4 -4,-453.9965 256.3899,-453.9965 256.3899,4 -4,4"/>
<g id="node1" class="node">
<title></title>
</g>
<!-- q0 -->
<g id="node2" class="node">
<title>q0</title>
<ellipse fill="none" stroke="#000000" cx="63.4983" cy="-175.4983" rx="19.4965" ry="19.4965"/>
<text text-anchor="middle" x="63.4983" y="-171.7983" font-family="Times,serif" font-size="14.00" fill="#000000">q0</text>
</g>
<!-- &#45;&gt;q0 -->
<g id="edge1" class="edge">
<title>&#45;&gt;q0</title>
<path fill="none" stroke="#000000" d="M7.0735,-175.4983C13.2984,-175.4983 26.6285,-175.4983 38.7696,-175.4983"/>
<polygon fill="#000000" stroke="#000000" points="38.876,-177.2484 43.8759,-175.4983 38.8759,-173.7484 38.876,-177.2484"/>
</g>
<!-- q0&#45;&gt;q0 -->
<g id="edge2" class="edge">
<title>q0&#45;&gt;q0</title>
<path fill="none" stroke="#000000" d="M61.3032,-195.1762C61.0322,-204.6412 61.7639,-212.9965 63.4983,-212.9965 65.0429,-212.9965 65.7923,-206.369 65.7463,-198.2326"/>
<polygon fill="#000000" stroke="#000000" points="66.7952,-198.1575 65.6933,-195.1762 64.6955,-198.194 66.7952,-198.1575"/>
<text text-anchor="middle" x="63.4983" y="-216.7965" font-family="Times,serif" font-size="14.00" fill="#000000">a</text>
</g>
<!-- q0&#45;&gt;q0 -->
<g id="edge4" class="edge">
<title>q0&#45;&gt;q0</title>
<path fill="none" stroke="#000000" d="M59.7992,-194.8376C57.9996,-212.2961 59.2326,-230.9965 63.4983,-230.9965 67.4973,-230.9965 68.831,-214.5606 67.4992,-198.1207"/>
<polygon fill="#000000" stroke="#000000" points="68.5177,-197.7288 67.1974,-194.8376 66.4265,-197.9211 68.5177,-197.7288"/>
<text text-anchor="middle" x="63.4983" y="-234.7965" font-family="Times,serif" font-size="14.00" fill="#000000">b</text>
</g>
<!-- q0&#45;&gt;q0 -->
<g id="edge6" class="edge">
<title>q0&#45;&gt;q0</title>
<path fill="none" stroke="#000000" d="M58.8251,-194.6956C54.9445,-219.3883 56.5022,-248.9965 63.4983,-248.9965 70.1938,-248.9965 71.9082,-221.8781 68.6416,-197.9031"/>
<polygon fill="#000000" stroke="#000000" points="69.6455,-197.5115 68.1714,-194.6956 67.5677,-197.8161 69.6455,-197.5115"/>
<text text-anchor="middle" x="63.4983" y="-252.7965" font-family="Times,serif" font-size="14.00" fill="#000000">c</text>
</g>
<!-- q1 -->
<g id="node3" class="node">
<title>q1</title>
<ellipse fill="none" stroke="#000000" cx="145.4948" cy="-331.4983" rx="19.4965" ry="19.4965"/>
<text text-anchor="middle" x="145.4948" y="-327.7983" font-family="Times,serif" font-size="14.00" fill="#000000">q1</text>
</g>
<!-- q0&#45;&gt;q1 -->
<g id="edge3" class="edge">
<title>q0&#45;&gt;q1</title>
<path fill="none" stroke="#000000" d="M71.4559,-193.5614C82.6734,-218.5522 104.2101,-264.8522 125.9965,-302.4983 127.9433,-305.8622 130.1367,-309.3585 132.3315,-312.7104"/>
<polygon fill="#000000" stroke="#000000" points="131.6379,-313.5647 134.17,-315.4859 133.3886,-312.405 131.6379,-313.5647"/>
<text text-anchor="middle" x="104.4965" y="-271.2983" font-family="Times,serif" font-size="14.00" fill="#000000">a</text>
</g>
<!-- q2 -->
<g id="node4" class="node">
<title>q2</title>
<ellipse fill="none" stroke="#000000" cx="145.4948" cy="-175.4983" rx="19.4965" ry="19.4965"/>
<text text-anchor="middle" x="145.4948" y="-171.7983" font-family="Times,serif" font-size="14.00" fill="#000000">q2</text>
</g>
<!-- q0&#45;&gt;q2 -->
<g id="edge5" class="edge">
<title>q0&#45;&gt;q2</title>
<path fill="none" stroke="#000000" d="M83.3473,-175.4983C95.2321,-175.4983 110.3819,-175.4983 122.7482,-175.4983"/>
<polygon fill="#000000" stroke="#000000" points="122.8286,-176.5484 125.8285,-175.4983 122.8285,-174.4484 122.8286,-176.5484"/>
<text text-anchor="middle" x="104.4965" y="-179.2983" font-family="Times,serif" font-size="14.00" fill="#000000">b</text>
</g>
<!-- q3 -->
<g id="node5" class="node">
<title>q3</title>
<ellipse fill="none" stroke="#000000" cx="145.4948" cy="-19.4983" rx="19.4965" ry="19.4965"/>
<text text-anchor="middle" x="145.4948" y="-15.7983" font-family="Times,serif" font-size="14.00" fill="#000000">q3</text>
</g>
<!-- q0&#45;&gt;q3 -->
<g id="edge7" class="edge">
<title>q0&#45;&gt;q3</title>
<path fill="none" stroke="#000000" d="M72.5866,-158.2075C87.8555,-129.1582 118.5779,-70.7083 134.8383,-39.7725"/>
<polygon fill="#000000" stroke="#000000" points="135.8993,-40.0106 136.3657,-36.8665 134.0405,-39.0335 135.8993,-40.0106"/>
<text text-anchor="middle" x="104.4965" y="-105.2983" font-family="Times,serif" font-size="14.00" fill="#000000">c</text>
</g>
<!-- q1&#45;&gt;q1 -->
<g id="edge8" class="edge">
<title>q1&#45;&gt;q1</title>
<path fill="none" stroke="#000000" d="M143.0558,-351.1762C142.7547,-360.6412 143.5677,-368.9965 145.4948,-368.9965 147.2111,-368.9965 148.0437,-362.369 147.9926,-354.2326"/>
<polygon fill="#000000" stroke="#000000" points="149.0414,-354.1554 147.9338,-351.1762 146.9418,-354.1959 149.0414,-354.1554"/>
<text text-anchor="middle" x="145.4948" y="-372.7965" font-family="Times,serif" font-size="14.00" fill="#000000">a</text>
</g>
<!-- q1&#45;&gt;q1 -->
<g id="edge10" class="edge">
<title>q1&#45;&gt;q1</title>
<path fill="none" stroke="#000000" d="M141.3847,-350.8376C139.3852,-368.2961 140.7552,-386.9965 145.4948,-386.9965 149.9382,-386.9965 151.42,-370.5606 149.9403,-354.1207"/>
<polygon fill="#000000" stroke="#000000" points="150.9545,-353.7153 149.6049,-350.8376 148.8653,-353.9288 150.9545,-353.7153"/>
<text text-anchor="middle" x="145.4948" y="-390.7965" font-family="Times,serif" font-size="14.00" fill="#000000">b</text>
</g>
<!-- q1&#45;&gt;q1 -->
<g id="edge11" class="edge">
<title>q1&#45;&gt;q1</title>
<path fill="none" stroke="#000000" d="M140.3679,-350.3237C135.9733,-375.09 137.6823,-404.9965 145.4948,-404.9965 152.9716,-404.9965 154.8582,-377.6049 151.1544,-353.5419"/>
<polygon fill="#000000" stroke="#000000" points="152.1476,-353.1119 150.6218,-350.3237 150.0758,-353.4549 152.1476,-353.1119"/>
<text text-anchor="middle" x="145.4948" y="-408.7965" font-family="Times,serif" font-size="14.00" fill="#000000">c</text>
</g>
<!-- qf -->
<g id="node6" class="node">
<title>qf</title>
<ellipse fill="none" stroke="#000000" cx="230.1915" cy="-175.4983" rx="18.3625" ry="18.3625"/>
<ellipse fill="none" stroke="#000000" cx="230.1915" cy="-175.4983" rx="22.3986" ry="22.3986"/>
<text text-anchor="middle" x="230.1915" y="-171.7983" font-family="Times,serif" font-size="14.00" fill="#000000">qf</text>
</g>
<!-- q1&#45;&gt;qf -->
<g id="edge9" class="edge">
<title>q1&#45;&gt;qf</title>
<path fill="none" stroke="#000000" d="M156.7691,-315.4564C159.5557,-311.2979 162.4648,-306.7828 164.9931,-302.4983 185.8961,-267.0755 207.0967,-224.209 219.425,-198.4354"/>
<polygon fill="#000000" stroke="#000000" points="220.3919,-198.8471 220.7368,-195.6873 218.4968,-197.9423 220.3919,-198.8471"/>
<text text-anchor="middle" x="186.4931" y="-271.2983" font-family="Times,serif" font-size="14.00" fill="#000000">a</text>
</g>
<!-- q2&#45;&gt;q2 -->
<g id="edge12" class="edge">
<title>q2&#45;&gt;q2</title>
<path fill="none" stroke="#000000" d="M143.0558,-195.1762C142.7547,-204.6412 143.5677,-212.9965 145.4948,-212.9965 147.2111,-212.9965 148.0437,-206.369 147.9926,-198.2326"/>
<polygon fill="#000000" stroke="#000000" points="149.0414,-198.1554 147.9338,-195.1762 146.9418,-198.1959 149.0414,-198.1554"/>
<text text-anchor="middle" x="145.4948" y="-216.7965" font-family="Times,serif" font-size="14.00" fill="#000000">a</text>
</g>
<!-- q2&#45;&gt;q2 -->
<g id="edge13" class="edge">
<title>q2&#45;&gt;q2</title>
<path fill="none" stroke="#000000" d="M141.3847,-194.8376C139.3852,-212.2961 140.7552,-230.9965 145.4948,-230.9965 149.9382,-230.9965 151.42,-214.5606 149.9403,-198.1207"/>
<polygon fill="#000000" stroke="#000000" points="150.9545,-197.7153 149.6049,-194.8376 148.8653,-197.9288 150.9545,-197.7153"/>
<text text-anchor="middle" x="145.4948" y="-234.7965" font-family="Times,serif" font-size="14.00" fill="#000000">b</text>
</g>
<!-- q2&#45;&gt;q2 -->
<g id="edge15" class="edge">
<title>q2&#45;&gt;q2</title>
<path fill="none" stroke="#000000" d="M140.3679,-194.3237C135.9733,-219.09 137.6823,-248.9965 145.4948,-248.9965 152.9716,-248.9965 154.8582,-221.6049 151.1544,-197.5419"/>
<polygon fill="#000000" stroke="#000000" points="152.1476,-197.1119 150.6218,-194.3237 150.0758,-197.4549 152.1476,-197.1119"/>
<text text-anchor="middle" x="145.4948" y="-252.7965" font-family="Times,serif" font-size="14.00" fill="#000000">c</text>
</g>
<!-- q2&#45;&gt;qf -->
<g id="edge14" class="edge">
<title>q2&#45;&gt;qf</title>
<path fill="none" stroke="#000000" d="M165.1388,-175.4983C176.9419,-175.4983 192.0857,-175.4983 204.7918,-175.4983"/>
<polygon fill="#000000" stroke="#000000" points="204.9661,-176.5484 207.9661,-175.4983 204.9661,-174.4484 204.9661,-176.5484"/>
<text text-anchor="middle" x="186.4931" y="-179.2983" font-family="Times,serif" font-size="14.00" fill="#000000">b</text>
</g>
<!-- q3&#45;&gt;q3 -->
<g id="edge16" class="edge">
<title>q3&#45;&gt;q3</title>
<path fill="none" stroke="#000000" d="M143.0558,-39.1762C142.7547,-48.6412 143.5677,-56.9965 145.4948,-56.9965 147.2111,-56.9965 148.0437,-50.369 147.9926,-42.2326"/>
<polygon fill="#000000" stroke="#000000" points="149.0414,-42.1554 147.9338,-39.1762 146.9418,-42.1959 149.0414,-42.1554"/>
<text text-anchor="middle" x="145.4948" y="-60.7965" font-family="Times,serif" font-size="14.00" fill="#000000">a</text>
</g>
<!-- q3&#45;&gt;q3 -->
<g id="edge17" class="edge">
<title>q3&#45;&gt;q3</title>
<path fill="none" stroke="#000000" d="M141.3847,-38.8376C139.3852,-56.2961 140.7552,-74.9965 145.4948,-74.9965 149.9382,-74.9965 151.42,-58.5606 149.9403,-42.1207"/>
<polygon fill="#000000" stroke="#000000" points="150.9545,-41.7153 149.6049,-38.8376 148.8653,-41.9288 150.9545,-41.7153"/>
<text text-anchor="middle" x="145.4948" y="-78.7965" font-family="Times,serif" font-size="14.00" fill="#000000">b</text>
</g>
<!-- q3&#45;&gt;q3 -->
<g id="edge18" class="edge">
<title>q3&#45;&gt;q3</title>
<path fill="none" stroke="#000000" d="M140.3679,-38.3237C135.9733,-63.09 137.6823,-92.9965 145.4948,-92.9965 152.9716,-92.9965 154.8582,-65.6049 151.1544,-41.5419"/>
<polygon fill="#000000" stroke="#000000" points="152.1476,-41.1119 150.6218,-38.3237 150.0758,-41.4549 152.1476,-41.1119"/>
<text text-anchor="middle" x="145.4948" y="-96.7965" font-family="Times,serif" font-size="14.00" fill="#000000">c</text>
</g>
<!-- q3&#45;&gt;qf -->
<g id="edge19" class="edge">
<title>q3&#45;&gt;qf</title>
<path fill="none" stroke="#000000" d="M154.8824,-36.789C170.2369,-65.0699 200.7203,-121.2162 217.8202,-152.7121"/>
<polygon fill="#000000" stroke="#000000" points="217.0781,-153.5459 219.4323,-155.6814 218.9237,-152.5439 217.0781,-153.5459"/>
<text text-anchor="middle" x="186.4931" y="-101.2983" font-family="Times,serif" font-size="14.00" fill="#000000">c</text>
</g>
</g>
</svg>
