<?xml version="1.0" encoding="UTF-8" standalone="no"?>
<!DOCTYPE svg PUBLIC "-//W3C//DTD SVG 1.1//EN"
 "http://www.w3.org/Graphics/SVG/1.1/DTD/svg11.dtd">
<!-- Generated by graphviz version 2.40.1 (20161225.0304)
 -->
<!-- Title: %3 Pages: 1 -->
<svg width="372pt" height="83pt"
 viewBox="0.00 0.00 372.39 82.70" xmlns="http://www.w3.org/2000/svg" xmlns:xlink="http://www.w3.org/1999/xlink">
<g id="graph0" class="graph" transform="scale(1 1) rotate(0) translate(4 78.6967)">
<title>%3</title>
<polygon fill="#ffffff" stroke="transparent" points="-4,4 -4,-78.6967 368.3864,-78.6967 368.3864,4 -4,4"/>
<g id="node1" class="node">
<title></title>
</g>
<!-- q0 -->
<g id="node2" class="node">
<title>q0</title>
<ellipse fill="none" stroke="#000000" cx="63.4983" cy="-22.1984" rx="19.4965" ry="19.4965"/>
<text text-anchor="middle" x="63.4983" y="-18.4984" font-family="Times,serif" font-size="14.00" fill="#000000">q0</text>
</g>
<!-- &#45;&gt;q0 -->
<g id="edge1" class="edge">
<title>&#45;&gt;q0</title>
<path fill="none" stroke="#000000" d="M7.0735,-22.1984C13.2984,-22.1984 26.6285,-22.1984 38.7696,-22.1984"/>
<polygon fill="#000000" stroke="#000000" points="38.876,-23.9485 43.8759,-22.1984 38.8759,-20.4485 38.876,-23.9485"/>
</g>
<!-- q0&#45;&gt;q0 -->
<g id="edge2" class="edge">
<title>q0&#45;&gt;q0</title>
<path fill="none" stroke="#000000" d="M57.0268,-40.7202C55.927,-50.6501 58.0842,-59.6967 63.4983,-59.6967 68.3202,-59.6967 70.5587,-52.5208 70.2137,-43.9361"/>
<polygon fill="#000000" stroke="#000000" points="71.2438,-43.6321 69.9698,-40.7202 69.1498,-43.791 71.2438,-43.6321"/>
<text text-anchor="middle" x="63.4983" y="-63.4967" font-family="Times,serif" font-size="14.00" fill="#000000">0, 1</text>
</g>
<!-- q1 -->
<g id="node3" class="node">
<title>q1</title>
<ellipse fill="none" stroke="#000000" cx="145.4948" cy="-22.1984" rx="19.4965" ry="19.4965"/>
<text text-anchor="middle" x="145.4948" y="-18.4984" font-family="Times,serif" font-size="14.00" fill="#000000">q1</text>
</g>
<!-- q0&#45;&gt;q1 -->
<g id="edge3" class="edge">
<title>q0&#45;&gt;q1</title>
<path fill="none" stroke="#000000" d="M83.3473,-22.1984C95.2321,-22.1984 110.3819,-22.1984 122.7482,-22.1984"/>
<polygon fill="#000000" stroke="#000000" points="122.8286,-23.2485 125.8285,-22.1984 122.8285,-21.1485 122.8286,-23.2485"/>
<text text-anchor="middle" x="104.4965" y="-25.9984" font-family="Times,serif" font-size="14.00" fill="#000000">1</text>
</g>
<!-- q2 -->
<g id="node4" class="node">
<title>q2</title>
<ellipse fill="none" stroke="#000000" cx="242.4913" cy="-22.1984" rx="19.4965" ry="19.4965"/>
<text text-anchor="middle" x="242.4913" y="-18.4984" font-family="Times,serif" font-size="14.00" fill="#000000">q2</text>
</g>
<!-- q1&#45;&gt;q2 -->
<g id="edge4" class="edge">
<title>q1&#45;&gt;q2</title>
<path fill="none" stroke="#000000" d="M165.1235,-22.1984C180.9002,-22.1984 203.0853,-22.1984 219.6561,-22.1984"/>
<polygon fill="#000000" stroke="#000000" points="219.8919,-23.2485 222.8918,-22.1984 219.8918,-21.1485 219.8919,-23.2485"/>
<text text-anchor="middle" x="193.9931" y="-25.9984" font-family="Times,serif" font-size="14.00" fill="#000000">0, 1</text>
</g>
<!-- qf -->
<g id="node5" class="node">
<title>qf</title>
<ellipse fill="none" stroke="#000000" cx="342.188" cy="-22.1984" rx="18.3625" ry="18.3625"/>
<ellipse fill="none" stroke="#000000" cx="342.188" cy="-22.1984" rx="22.3986" ry="22.3986"/>
<text text-anchor="middle" x="342.188" y="-18.4984" font-family="Times,serif" font-size="14.00" fill="#000000">qf</text>
</g>
<!-- q2&#45;&gt;qf -->
<g id="edge5" class="edge">
<title>q2&#45;&gt;qf</title>
<path fill="none" stroke="#000000" d="M262.1882,-22.1984C277.7228,-22.1984 299.5152,-22.1984 316.4329,-22.1984"/>
<polygon fill="#000000" stroke="#000000" points="316.7481,-23.2485 319.7481,-22.1984 316.7481,-21.1485 316.7481,-23.2485"/>
<text text-anchor="middle" x="290.9896" y="-25.9984" font-family="Times,serif" font-size="14.00" fill="#000000">0, 1</text>
</g>
</g>
</svg>
