<?xml version="1.0" encoding="UTF-8" standalone="no"?>
<!DOCTYPE svg PUBLIC "-//W3C//DTD SVG 1.1//EN"
 "http://www.w3.org/Graphics/SVG/1.1/DTD/svg11.dtd">
<!-- Generated by graphviz version 2.40.1 (20161225.0304)
 -->
<!-- Title: %3 Pages: 1 -->
<svg width="356pt" height="100pt"
 viewBox="0.00 0.00 356.39 99.70" xmlns="http://www.w3.org/2000/svg" xmlns:xlink="http://www.w3.org/1999/xlink">
<g id="graph0" class="graph" transform="scale(1 1) rotate(0) translate(4 95.6967)">
<title>%3</title>
<polygon fill="#ffffff" stroke="transparent" points="-4,4 -4,-95.6967 352.3864,-95.6967 352.3864,4 -4,4"/>
<g id="node1" class="node">
<title></title>
</g>
<!-- q0 -->
<g id="node2" class="node">
<title>q0</title>
<ellipse fill="none" stroke="#000000" cx="63.4983" cy="-39.1984" rx="19.4965" ry="19.4965"/>
<text text-anchor="middle" x="63.4983" y="-35.4984" font-family="Times,serif" font-size="14.00" fill="#000000">q0</text>
</g>
<!-- &#45;&gt;q0 -->
<g id="edge1" class="edge">
<title>&#45;&gt;q0</title>
<path fill="none" stroke="#000000" d="M7.0735,-39.1984C13.2984,-39.1984 26.6285,-39.1984 38.7696,-39.1984"/>
<polygon fill="#000000" stroke="#000000" points="38.876,-40.9485 43.8759,-39.1984 38.8759,-37.4485 38.876,-40.9485"/>
</g>
<!-- q0&#45;&gt;q0 -->
<g id="edge3" class="edge">
<title>q0&#45;&gt;q0</title>
<path fill="none" stroke="#000000" d="M57.0268,-57.7202C55.927,-67.6501 58.0842,-76.6967 63.4983,-76.6967 68.3202,-76.6967 70.5587,-69.5208 70.2137,-60.9361"/>
<polygon fill="#000000" stroke="#000000" points="71.2438,-60.6321 69.9698,-57.7202 69.1498,-60.791 71.2438,-60.6321"/>
<text text-anchor="middle" x="63.4983" y="-80.4967" font-family="Times,serif" font-size="14.00" fill="#000000">b, c</text>
</g>
<!-- q1 -->
<g id="node3" class="node">
<title>q1</title>
<ellipse fill="none" stroke="#000000" cx="159.4948" cy="-58.1984" rx="19.4965" ry="19.4965"/>
<text text-anchor="middle" x="159.4948" y="-54.4984" font-family="Times,serif" font-size="14.00" fill="#000000">q1</text>
</g>
<!-- q0&#45;&gt;q1 -->
<g id="edge2" class="edge">
<title>q0&#45;&gt;q1</title>
<path fill="none" stroke="#000000" d="M80.9954,-48.1734C87.1594,-50.9245 94.2385,-53.6355 100.9965,-55.1984 112.5887,-57.8792 125.8038,-58.7362 136.7372,-58.8766"/>
<polygon fill="#000000" stroke="#000000" points="136.7497,-59.9266 139.7572,-58.898 136.7647,-57.8266 136.7497,-59.9266"/>
<text text-anchor="middle" x="111.4965" y="-61.9984" font-family="Times,serif" font-size="14.00" fill="#000000">a</text>
</g>
<!-- q1&#45;&gt;q0 -->
<g id="edge5" class="edge">
<title>q1&#45;&gt;q0</title>
<path fill="none" stroke="#000000" d="M143.5459,-46.3176C137.1807,-42.2733 129.5717,-38.2565 121.9965,-36.1984 110.3353,-33.0301 96.8959,-33.4495 85.8416,-34.8085"/>
<polygon fill="#000000" stroke="#000000" points="85.6256,-33.7779 82.7904,-35.2145 85.9027,-35.8595 85.6256,-33.7779"/>
<text text-anchor="middle" x="111.4965" y="-39.9984" font-family="Times,serif" font-size="14.00" fill="#000000">b, c</text>
</g>
<!-- q2 -->
<g id="node4" class="node">
<title>q2</title>
<ellipse fill="none" stroke="#000000" cx="241.4913" cy="-22.1984" rx="19.4965" ry="19.4965"/>
<text text-anchor="middle" x="241.4913" y="-18.4984" font-family="Times,serif" font-size="14.00" fill="#000000">q2</text>
</g>
<!-- q1&#45;&gt;q2 -->
<g id="edge4" class="edge">
<title>q1&#45;&gt;q2</title>
<path fill="none" stroke="#000000" d="M177.6925,-50.2088C190.413,-44.624 207.4274,-37.1539 220.6863,-31.3327"/>
<polygon fill="#000000" stroke="#000000" points="221.3019,-32.2092 223.6266,-30.0418 220.4576,-30.2864 221.3019,-32.2092"/>
<text text-anchor="middle" x="200.4931" y="-44.9984" font-family="Times,serif" font-size="14.00" fill="#000000">a</text>
</g>
<!-- q2&#45;&gt;q0 -->
<g id="edge8" class="edge">
<title>q2&#45;&gt;q0</title>
<path fill="none" stroke="#000000" d="M222.1134,-19.4639C209.7945,-17.8656 193.4918,-16.0078 178.9931,-15.1984 161.6882,-14.2323 157.1285,-12.574 139.9965,-15.1984 120.7773,-18.1425 99.7557,-25.0194 84.621,-30.6606"/>
<polygon fill="#000000" stroke="#000000" points="84.1118,-29.7304 81.6748,-31.7709 84.8524,-31.6955 84.1118,-29.7304"/>
<text text-anchor="middle" x="159.4948" y="-18.9984" font-family="Times,serif" font-size="14.00" fill="#000000">c</text>
</g>
<!-- q2&#45;&gt;q2 -->
<g id="edge6" class="edge">
<title>q2&#45;&gt;q2</title>
<path fill="none" stroke="#000000" d="M234.3008,-40.7202C233.0789,-50.6501 235.4757,-59.6967 241.4913,-59.6967 246.849,-59.6967 249.3362,-52.5208 248.953,-43.9361"/>
<polygon fill="#000000" stroke="#000000" points="249.9803,-43.6213 248.6819,-40.7202 247.8877,-43.7978 249.9803,-43.6213"/>
<text text-anchor="middle" x="241.4913" y="-63.4967" font-family="Times,serif" font-size="14.00" fill="#000000">a</text>
</g>
<!-- qf -->
<g id="node5" class="node">
<title>qf</title>
<ellipse fill="none" stroke="#000000" cx="326.188" cy="-22.1984" rx="18.3625" ry="18.3625"/>
<ellipse fill="none" stroke="#000000" cx="326.188" cy="-22.1984" rx="22.3986" ry="22.3986"/>
<text text-anchor="middle" x="326.188" y="-18.4984" font-family="Times,serif" font-size="14.00" fill="#000000">qf</text>
</g>
<!-- q2&#45;&gt;qf -->
<g id="edge7" class="edge">
<title>q2&#45;&gt;qf</title>
<path fill="none" stroke="#000000" d="M261.1353,-22.1984C272.9384,-22.1984 288.0823,-22.1984 300.7883,-22.1984"/>
<polygon fill="#000000" stroke="#000000" points="300.9627,-23.2485 303.9626,-22.1984 300.9626,-21.1485 300.9627,-23.2485"/>
<text text-anchor="middle" x="282.4896" y="-25.9984" font-family="Times,serif" font-size="14.00" fill="#000000">b</text>
</g>
<!-- qf&#45;&gt;qf -->
<g id="edge9" class="edge">
<title>qf&#45;&gt;qf</title>
<path fill="none" stroke="#000000" d="M318.5053,-43.2932C317.5568,-53.4398 320.1177,-62.3968 326.188,-62.3968 331.5944,-62.3968 334.217,-55.292 334.056,-46.5697"/>
<polygon fill="#000000" stroke="#000000" points="335.0885,-46.2292 333.8707,-43.2932 332.9919,-46.3478 335.0885,-46.2292"/>
<text text-anchor="middle" x="326.188" y="-66.1968" font-family="Times,serif" font-size="14.00" fill="#000000">a, b, c</text>
</g>
</g>
</svg>
