<?xml version="1.0" encoding="UTF-8" standalone="no"?>
<!DOCTYPE svg PUBLIC "-//W3C//DTD SVG 1.1//EN"
 "http://www.w3.org/Graphics/SVG/1.1/DTD/svg11.dtd">
<!-- Generated by graphviz version 2.40.1 (20161225.0304)
 -->
<!-- Title: %3 Pages: 1 -->
<svg width="260pt" height="260pt"
 viewBox="0.00 0.00 260.39 260.00" xmlns="http://www.w3.org/2000/svg" xmlns:xlink="http://www.w3.org/1999/xlink">
<g id="graph0" class="graph" transform="scale(1 1) rotate(0) translate(4 255.9965)">
<title>%3</title>
<polygon fill="#ffffff" stroke="transparent" points="-4,4 -4,-255.9965 256.3899,-255.9965 256.3899,4 -4,4"/>
<g id="node1" class="node">
<title></title>
</g>
<!-- q0 -->
<g id="node2" class="node">
<title>q0</title>
<ellipse fill="none" stroke="#000000" cx="63.4983" cy="-109.4983" rx="19.4965" ry="19.4965"/>
<text text-anchor="middle" x="63.4983" y="-105.7983" font-family="Times,serif" font-size="14.00" fill="#000000">q0</text>
</g>
<!-- &#45;&gt;q0 -->
<g id="edge1" class="edge">
<title>&#45;&gt;q0</title>
<path fill="none" stroke="#000000" d="M7.0735,-109.4983C13.2984,-109.4983 26.6285,-109.4983 38.7696,-109.4983"/>
<polygon fill="#000000" stroke="#000000" points="38.876,-111.2484 43.8759,-109.4983 38.8759,-107.7484 38.876,-111.2484"/>
</g>
<!-- q0&#45;&gt;q0 -->
<g id="edge2" class="edge">
<title>q0&#45;&gt;q0</title>
<path fill="none" stroke="#000000" d="M57.0268,-128.0201C55.927,-137.95 58.0842,-146.9965 63.4983,-146.9965 68.3202,-146.9965 70.5587,-139.8207 70.2137,-131.2359"/>
<polygon fill="#000000" stroke="#000000" points="71.2438,-130.932 69.9698,-128.0201 69.1498,-131.0909 71.2438,-130.932"/>
<text text-anchor="middle" x="63.4983" y="-150.7965" font-family="Times,serif" font-size="14.00" fill="#000000">a, b, c</text>
</g>
<!-- q1 -->
<g id="node3" class="node">
<title>q1</title>
<ellipse fill="none" stroke="#000000" cx="145.4948" cy="-199.4983" rx="19.4965" ry="19.4965"/>
<text text-anchor="middle" x="145.4948" y="-195.7983" font-family="Times,serif" font-size="14.00" fill="#000000">q1</text>
</g>
<!-- q0&#45;&gt;q1 -->
<g id="edge3" class="edge">
<title>q0&#45;&gt;q1</title>
<path fill="none" stroke="#000000" d="M76.6724,-123.9583C91.2566,-139.966 114.735,-165.7361 130.1409,-182.6457"/>
<polygon fill="#000000" stroke="#000000" points="129.5567,-183.5636 132.3533,-185.0741 131.1091,-182.1493 129.5567,-183.5636"/>
<text text-anchor="middle" x="104.4965" y="-160.2983" font-family="Times,serif" font-size="14.00" fill="#000000">a</text>
</g>
<!-- q2 -->
<g id="node4" class="node">
<title>q2</title>
<ellipse fill="none" stroke="#000000" cx="145.4948" cy="-109.4983" rx="19.4965" ry="19.4965"/>
<text text-anchor="middle" x="145.4948" y="-105.7983" font-family="Times,serif" font-size="14.00" fill="#000000">q2</text>
</g>
<!-- q0&#45;&gt;q2 -->
<g id="edge4" class="edge">
<title>q0&#45;&gt;q2</title>
<path fill="none" stroke="#000000" d="M83.3473,-109.4983C95.2321,-109.4983 110.3819,-109.4983 122.7482,-109.4983"/>
<polygon fill="#000000" stroke="#000000" points="122.8286,-110.5484 125.8285,-109.4983 122.8285,-108.4484 122.8286,-110.5484"/>
<text text-anchor="middle" x="104.4965" y="-113.2983" font-family="Times,serif" font-size="14.00" fill="#000000">b</text>
</g>
<!-- q3 -->
<g id="node5" class="node">
<title>q3</title>
<ellipse fill="none" stroke="#000000" cx="145.4948" cy="-19.4983" rx="19.4965" ry="19.4965"/>
<text text-anchor="middle" x="145.4948" y="-15.7983" font-family="Times,serif" font-size="14.00" fill="#000000">q3</text>
</g>
<!-- q0&#45;&gt;q3 -->
<g id="edge5" class="edge">
<title>q0&#45;&gt;q3</title>
<path fill="none" stroke="#000000" d="M76.6724,-95.0382C91.2566,-79.0305 114.735,-53.2605 130.1409,-36.3508"/>
<polygon fill="#000000" stroke="#000000" points="131.1091,-36.8473 132.3533,-33.9224 129.5567,-35.4329 131.1091,-36.8473"/>
<text text-anchor="middle" x="104.4965" y="-70.2983" font-family="Times,serif" font-size="14.00" fill="#000000">c</text>
</g>
<!-- q1&#45;&gt;q1 -->
<g id="edge6" class="edge">
<title>q1&#45;&gt;q1</title>
<path fill="none" stroke="#000000" d="M138.3043,-218.0201C137.0823,-227.95 139.4792,-236.9965 145.4948,-236.9965 150.8525,-236.9965 153.3397,-229.8207 152.9564,-221.2359"/>
<polygon fill="#000000" stroke="#000000" points="153.9837,-220.9212 152.6854,-218.0201 151.8911,-221.0977 153.9837,-220.9212"/>
<text text-anchor="middle" x="145.4948" y="-240.7965" font-family="Times,serif" font-size="14.00" fill="#000000">a, b, c</text>
</g>
<!-- qf -->
<g id="node6" class="node">
<title>qf</title>
<ellipse fill="none" stroke="#000000" cx="230.1915" cy="-109.4983" rx="18.3625" ry="18.3625"/>
<ellipse fill="none" stroke="#000000" cx="230.1915" cy="-109.4983" rx="22.3986" ry="22.3986"/>
<text text-anchor="middle" x="230.1915" y="-105.7983" font-family="Times,serif" font-size="14.00" fill="#000000">qf</text>
</g>
<!-- q1&#45;&gt;qf -->
<g id="edge7" class="edge">
<title>q1&#45;&gt;qf</title>
<path fill="none" stroke="#000000" d="M159.1028,-185.0382C173.6324,-169.5988 196.7083,-145.078 212.6063,-128.1845"/>
<polygon fill="#000000" stroke="#000000" points="213.6066,-128.6537 214.898,-125.7494 212.0773,-127.2145 213.6066,-128.6537"/>
<text text-anchor="middle" x="186.4931" y="-160.2983" font-family="Times,serif" font-size="14.00" fill="#000000">a</text>
</g>
<!-- q2&#45;&gt;q2 -->
<g id="edge8" class="edge">
<title>q2&#45;&gt;q2</title>
<path fill="none" stroke="#000000" d="M138.3043,-128.0201C137.0823,-137.95 139.4792,-146.9965 145.4948,-146.9965 150.8525,-146.9965 153.3397,-139.8207 152.9564,-131.2359"/>
<polygon fill="#000000" stroke="#000000" points="153.9837,-130.9212 152.6854,-128.0201 151.8911,-131.0977 153.9837,-130.9212"/>
<text text-anchor="middle" x="145.4948" y="-150.7965" font-family="Times,serif" font-size="14.00" fill="#000000">a, b, c</text>
</g>
<!-- q2&#45;&gt;qf -->
<g id="edge9" class="edge">
<title>q2&#45;&gt;qf</title>
<path fill="none" stroke="#000000" d="M165.1388,-109.4983C176.9419,-109.4983 192.0857,-109.4983 204.7918,-109.4983"/>
<polygon fill="#000000" stroke="#000000" points="204.9661,-110.5484 207.9661,-109.4983 204.9661,-108.4484 204.9661,-110.5484"/>
<text text-anchor="middle" x="186.4931" y="-113.2983" font-family="Times,serif" font-size="14.00" fill="#000000">b</text>
</g>
<!-- q3&#45;&gt;q3 -->
<g id="edge10" class="edge">
<title>q3&#45;&gt;q3</title>
<path fill="none" stroke="#000000" d="M138.3043,-38.0201C137.0823,-47.95 139.4792,-56.9965 145.4948,-56.9965 150.8525,-56.9965 153.3397,-49.8207 152.9564,-41.2359"/>
<polygon fill="#000000" stroke="#000000" points="153.9837,-40.9212 152.6854,-38.0201 151.8911,-41.0977 153.9837,-40.9212"/>
<text text-anchor="middle" x="145.4948" y="-60.7965" font-family="Times,serif" font-size="14.00" fill="#000000">a, b, c</text>
</g>
<!-- q3&#45;&gt;qf -->
<g id="edge11" class="edge">
<title>q3&#45;&gt;qf</title>
<path fill="none" stroke="#000000" d="M159.1028,-33.9583C173.6324,-49.3977 196.7083,-73.9186 212.6063,-90.812"/>
<polygon fill="#000000" stroke="#000000" points="212.0773,-91.782 214.898,-93.2472 213.6066,-90.3428 212.0773,-91.782"/>
<text text-anchor="middle" x="186.4931" y="-68.2983" font-family="Times,serif" font-size="14.00" fill="#000000">c</text>
</g>
</g>
</svg>
